<?xml version="1.0" encoding="utf-8" standalone="no"?>
<!DOCTYPE svg PUBLIC "-//W3C//DTD SVG 1.1//EN"
  "http://www.w3.org/Graphics/SVG/1.1/DTD/svg11.dtd">
<svg xmlns:xlink="http://www.w3.org/1999/xlink" width="828.940312pt" height="325.05pt" viewBox="0 0 828.940312 325.05" xmlns="http://www.w3.org/2000/svg" version="1.1">
 <metadata>
  <rdf:RDF xmlns:dc="http://purl.org/dc/elements/1.1/" xmlns:cc="http://creativecommons.org/ns#" xmlns:rdf="http://www.w3.org/1999/02/22-rdf-syntax-ns#">
   <cc:Work>
    <dc:type rdf:resource="http://purl.org/dc/dcmitype/StillImage"/>
    <dc:date>2026-09-16T16:46:23.194252</dc:date>
    <dc:format>image/svg+xml</dc:format>
    <dc:creator>
     <cc:Agent>
      <dc:title>Matplotlib v3.11.1, https://matplotlib.org/</dc:title>
     </cc:Agent>
    </dc:creator>
   </cc:Work>
  </rdf:RDF>
 </metadata>
 <defs>
  <style type="text/css">*{stroke-linejoin: round; stroke-linecap: butt}</style>
 </defs>
 <g id="figure_1">
  <g id="patch_1">
   <path d="M 0 325.05 
L 828.940312 325.05 
L 828.940312 0 
L 0 0 
z
" style="fill: #ffffff"/>
  </g>
  <g id="axes_1">
   <g id="patch_2">
    <path d="M 34.853438 284.715 
L 399.263437 284.715 
L 399.263437 23.925 
L 34.853438 23.925 
z
" style="fill: #ffffff"/>
   </g>
   <g id="line2d_1">
    <path d="M 96.256522 284.715 
L 96.256522 23.925 
" clip-path="url(#p87b90af6ac)" style="fill: none; stroke-dasharray: 0.7,1.155; stroke-dashoffset: 0; stroke: #b0b7bf; stroke-width: 0.7"/>
   </g>
   <g id="line2d_2">
    <path d="M 157.659607 284.715 
L 157.659607 23.925 
" clip-path="url(#p87b90af6ac)" style="fill: none; stroke-dasharray: 0.7,1.155; stroke-dashoffset: 0; stroke: #b0b7bf; stroke-width: 0.7"/>
   </g>
   <g id="line2d_3">
    <path d="M 219.062692 284.715 
L 219.062692 23.925 
" clip-path="url(#p87b90af6ac)" style="fill: none; stroke-dasharray: 0.7,1.155; stroke-dashoffset: 0; stroke: #b0b7bf; stroke-width: 0.7"/>
   </g>
   <g id="line2d_4">
    <path d="M 280.465777 284.715 
L 280.465777 23.925 
" clip-path="url(#p87b90af6ac)" style="fill: none; stroke-dasharray: 0.7,1.155; stroke-dashoffset: 0; stroke: #b0b7bf; stroke-width: 0.7"/>
   </g>
   <g id="line2d_5">
    <path d="M 341.868862 284.715 
L 341.868862 23.925 
" clip-path="url(#p87b90af6ac)" style="fill: none; stroke-dasharray: 0.7,1.155; stroke-dashoffset: 0; stroke: #b0b7bf; stroke-width: 0.7"/>
   </g>
   <g id="matplotlib.axis_1">
    <g id="xtick_1">
     <g id="line2d_6">
      <path d="M 34.853438 284.715 
L 34.853438 23.925 
" clip-path="url(#p87b90af6ac)" style="fill: none; stroke: #b0b0b0; stroke-opacity: 0.22; stroke-width: 0.6; stroke-linecap: square"/>
     </g>
     <g id="line2d_7">
      <defs>
       <path id="ma5935367ae" d="M 0 0 
L 0 3.5 
" style="stroke: #000000; stroke-width: 0.8"/>
      </defs>
      <g>
       <use xlink:href="#ma5935367ae" x="34.853438" y="284.715" style="stroke: #000000; stroke-width: 0.8"/>
      </g>
     </g>
     <g id="text_1">
      <text style="font-size: 9px; font-family: 'Helvetica Neue', 'Arial', 'Hiragino Sans GB', 'PingFang SC', 'Arial Unicode MS', 'DejaVu Sans', sans-serif; text-anchor: middle" x="34.853438" y="300.283" transform="rotate(-0 34.853438 300.283)">0</text>
     </g>
    </g>
    <g id="xtick_2">
     <g id="line2d_8">
      <path d="M 80.404687 284.715 
L 80.404687 23.925 
" clip-path="url(#p87b90af6ac)" style="fill: none; stroke: #b0b0b0; stroke-opacity: 0.22; stroke-width: 0.6; stroke-linecap: square"/>
     </g>
     <g id="line2d_9">
      <g>
       <use xlink:href="#ma5935367ae" x="80.404687" y="284.715" style="stroke: #000000; stroke-width: 0.8"/>
      </g>
     </g>
     <g id="text_2">
      <text style="font-size: 9px; font-family: 'Helvetica Neue', 'Arial', 'Hiragino Sans GB', 'PingFang SC', 'Arial Unicode MS', 'DejaVu Sans', sans-serif; text-anchor: middle" x="80.404687" y="300.283" transform="rotate(-0 80.404687 300.283)">250</text>
     </g>
    </g>
    <g id="xtick_3">
     <g id="line2d_10">
      <path d="M 125.955937 284.715 
L 125.955937 23.925 
" clip-path="url(#p87b90af6ac)" style="fill: none; stroke: #b0b0b0; stroke-opacity: 0.22; stroke-width: 0.6; stroke-linecap: square"/>
     </g>
     <g id="line2d_11">
      <g>
       <use xlink:href="#ma5935367ae" x="125.955937" y="284.715" style="stroke: #000000; stroke-width: 0.8"/>
      </g>
     </g>
     <g id="text_3">
      <text style="font-size: 9px; font-family: 'Helvetica Neue', 'Arial', 'Hiragino Sans GB', 'PingFang SC', 'Arial Unicode MS', 'DejaVu Sans', sans-serif; text-anchor: middle" x="125.955937" y="300.283" transform="rotate(-0 125.955937 300.283)">500</text>
     </g>
    </g>
    <g id="xtick_4">
     <g id="line2d_12">
      <path d="M 171.507187 284.715 
L 171.507187 23.925 
" clip-path="url(#p87b90af6ac)" style="fill: none; stroke: #b0b0b0; stroke-opacity: 0.22; stroke-width: 0.6; stroke-linecap: square"/>
     </g>
     <g id="line2d_13">
      <g>
       <use xlink:href="#ma5935367ae" x="171.507187" y="284.715" style="stroke: #000000; stroke-width: 0.8"/>
      </g>
     </g>
     <g id="text_4">
      <text style="font-size: 9px; font-family: 'Helvetica Neue', 'Arial', 'Hiragino Sans GB', 'PingFang SC', 'Arial Unicode MS', 'DejaVu Sans', sans-serif; text-anchor: middle" x="171.507187" y="300.283" transform="rotate(-0 171.507187 300.283)">750</text>
     </g>
    </g>
    <g id="xtick_5">
     <g id="line2d_14">
      <path d="M 217.058437 284.715 
L 217.058437 23.925 
" clip-path="url(#p87b90af6ac)" style="fill: none; stroke: #b0b0b0; stroke-opacity: 0.22; stroke-width: 0.6; stroke-linecap: square"/>
     </g>
     <g id="line2d_15">
      <g>
       <use xlink:href="#ma5935367ae" x="217.058437" y="284.715" style="stroke: #000000; stroke-width: 0.8"/>
      </g>
     </g>
     <g id="text_5">
      <text style="font-size: 9px; font-family: 'Helvetica Neue', 'Arial', 'Hiragino Sans GB', 'PingFang SC', 'Arial Unicode MS', 'DejaVu Sans', sans-serif; text-anchor: middle" x="217.058437" y="300.283" transform="rotate(-0 217.058437 300.283)">1000</text>
     </g>
    </g>
    <g id="xtick_6">
     <g id="line2d_16">
      <path d="M 262.609687 284.715 
L 262.609687 23.925 
" clip-path="url(#p87b90af6ac)" style="fill: none; stroke: #b0b0b0; stroke-opacity: 0.22; stroke-width: 0.6; stroke-linecap: square"/>
     </g>
     <g id="line2d_17">
      <g>
       <use xlink:href="#ma5935367ae" x="262.609687" y="284.715" style="stroke: #000000; stroke-width: 0.8"/>
      </g>
     </g>
     <g id="text_6">
      <text style="font-size: 9px; font-family: 'Helvetica Neue', 'Arial', 'Hiragino Sans GB', 'PingFang SC', 'Arial Unicode MS', 'DejaVu Sans', sans-serif; text-anchor: middle" x="262.609687" y="300.283" transform="rotate(-0 262.609687 300.283)">1250</text>
     </g>
    </g>
    <g id="xtick_7">
     <g id="line2d_18">
      <path d="M 308.160937 284.715 
L 308.160937 23.925 
" clip-path="url(#p87b90af6ac)" style="fill: none; stroke: #b0b0b0; stroke-opacity: 0.22; stroke-width: 0.6; stroke-linecap: square"/>
     </g>
     <g id="line2d_19">
      <g>
       <use xlink:href="#ma5935367ae" x="308.160937" y="284.715" style="stroke: #000000; stroke-width: 0.8"/>
      </g>
     </g>
     <g id="text_7">
      <text style="font-size: 9px; font-family: 'Helvetica Neue', 'Arial', 'Hiragino Sans GB', 'PingFang SC', 'Arial Unicode MS', 'DejaVu Sans', sans-serif; text-anchor: middle" x="308.160937" y="300.283" transform="rotate(-0 308.160937 300.283)">1500</text>
     </g>
    </g>
    <g id="xtick_8">
     <g id="line2d_20">
      <path d="M 353.712187 284.715 
L 353.712187 23.925 
" clip-path="url(#p87b90af6ac)" style="fill: none; stroke: #b0b0b0; stroke-opacity: 0.22; stroke-width: 0.6; stroke-linecap: square"/>
     </g>
     <g id="line2d_21">
      <g>
       <use xlink:href="#ma5935367ae" x="353.712187" y="284.715" style="stroke: #000000; stroke-width: 0.8"/>
      </g>
     </g>
     <g id="text_8">
      <text style="font-size: 9px; font-family: 'Helvetica Neue', 'Arial', 'Hiragino Sans GB', 'PingFang SC', 'Arial Unicode MS', 'DejaVu Sans', sans-serif; text-anchor: middle" x="353.712187" y="300.283" transform="rotate(-0 353.712187 300.283)">1750</text>
     </g>
    </g>
    <g id="xtick_9">
     <g id="line2d_22">
      <path d="M 399.263437 284.715 
L 399.263437 23.925 
" clip-path="url(#p87b90af6ac)" style="fill: none; stroke: #b0b0b0; stroke-opacity: 0.22; stroke-width: 0.6; stroke-linecap: square"/>
     </g>
     <g id="line2d_23">
      <g>
       <use xlink:href="#ma5935367ae" x="399.263437" y="284.715" style="stroke: #000000; stroke-width: 0.8"/>
      </g>
     </g>
     <g id="text_9">
      <text style="font-size: 9px; font-family: 'Helvetica Neue', 'Arial', 'Hiragino Sans GB', 'PingFang SC', 'Arial Unicode MS', 'DejaVu Sans', sans-serif; text-anchor: middle" x="399.263437" y="300.283" transform="rotate(-0 399.263437 300.283)">2000</text>
     </g>
    </g>
    <g id="text_10">
     <text style="font-size: 10px; font-family: 'Helvetica Neue', 'Arial', 'Hiragino Sans GB', 'PingFang SC', 'Arial Unicode MS', 'DejaVu Sans', sans-serif; text-anchor: middle" x="217.058437" y="315.72" transform="rotate(-0 217.058437 315.72)">optimizer step</text>
    </g>
   </g>
   <g id="matplotlib.axis_2">
    <g id="ytick_1">
     <g id="line2d_24">
      <path d="M 34.853438 284.528343 
L 399.263437 284.528343 
" clip-path="url(#p87b90af6ac)" style="fill: none; stroke: #b0b0b0; stroke-opacity: 0.22; stroke-width: 0.6; stroke-linecap: square"/>
     </g>
     <g id="line2d_25">
      <defs>
       <path id="mcb7b0945da" d="M 0 0 
L -3.5 0 
" style="stroke: #000000; stroke-width: 0.8"/>
      </defs>
      <g>
       <use xlink:href="#mcb7b0945da" x="34.853438" y="284.528343" style="stroke: #000000; stroke-width: 0.8"/>
      </g>
     </g>
     <g id="text_11">
      <text style="font-size: 9px; font-family: 'Helvetica Neue', 'Arial', 'Hiragino Sans GB', 'PingFang SC', 'Arial Unicode MS', 'DejaVu Sans', sans-serif; text-anchor: end" x="27.853438" y="288.812343" transform="rotate(-0 27.853438 288.812343)">0</text>
     </g>
    </g>
    <g id="ytick_2">
     <g id="line2d_26">
      <path d="M 34.853438 253.820387 
L 399.263437 253.820387 
" clip-path="url(#p87b90af6ac)" style="fill: none; stroke: #b0b0b0; stroke-opacity: 0.22; stroke-width: 0.6; stroke-linecap: square"/>
     </g>
     <g id="line2d_27">
      <g>
       <use xlink:href="#mcb7b0945da" x="34.853438" y="253.820387" style="stroke: #000000; stroke-width: 0.8"/>
      </g>
     </g>
     <g id="text_12">
      <text style="font-size: 9px; font-family: 'Helvetica Neue', 'Arial', 'Hiragino Sans GB', 'PingFang SC', 'Arial Unicode MS', 'DejaVu Sans', sans-serif; text-anchor: end" x="27.853438" y="258.104387" transform="rotate(-0 27.853438 258.104387)">1</text>
     </g>
    </g>
    <g id="ytick_3">
     <g id="line2d_28">
      <path d="M 34.853438 223.112431 
L 399.263437 223.112431 
" clip-path="url(#p87b90af6ac)" style="fill: none; stroke: #b0b0b0; stroke-opacity: 0.22; stroke-width: 0.6; stroke-linecap: square"/>
     </g>
     <g id="line2d_29">
      <g>
       <use xlink:href="#mcb7b0945da" x="34.853438" y="223.112431" style="stroke: #000000; stroke-width: 0.8"/>
      </g>
     </g>
     <g id="text_13">
      <text style="font-size: 9px; font-family: 'Helvetica Neue', 'Arial', 'Hiragino Sans GB', 'PingFang SC', 'Arial Unicode MS', 'DejaVu Sans', sans-serif; text-anchor: end" x="27.853438" y="227.396431" transform="rotate(-0 27.853438 227.396431)">2</text>
     </g>
    </g>
    <g id="ytick_4">
     <g id="line2d_30">
      <path d="M 34.853438 192.404474 
L 399.263437 192.404474 
" clip-path="url(#p87b90af6ac)" style="fill: none; stroke: #b0b0b0; stroke-opacity: 0.22; stroke-width: 0.6; stroke-linecap: square"/>
     </g>
     <g id="line2d_31">
      <g>
       <use xlink:href="#mcb7b0945da" x="34.853438" y="192.404474" style="stroke: #000000; stroke-width: 0.8"/>
      </g>
     </g>
     <g id="text_14">
      <text style="font-size: 9px; font-family: 'Helvetica Neue', 'Arial', 'Hiragino Sans GB', 'PingFang SC', 'Arial Unicode MS', 'DejaVu Sans', sans-serif; text-anchor: end" x="27.853438" y="196.688474" transform="rotate(-0 27.853438 196.688474)">3</text>
     </g>
    </g>
    <g id="ytick_5">
     <g id="line2d_32">
      <path d="M 34.853438 161.696518 
L 399.263437 161.696518 
" clip-path="url(#p87b90af6ac)" style="fill: none; stroke: #b0b0b0; stroke-opacity: 0.22; stroke-width: 0.6; stroke-linecap: square"/>
     </g>
     <g id="line2d_33">
      <g>
       <use xlink:href="#mcb7b0945da" x="34.853438" y="161.696518" style="stroke: #000000; stroke-width: 0.8"/>
      </g>
     </g>
     <g id="text_15">
      <text style="font-size: 9px; font-family: 'Helvetica Neue', 'Arial', 'Hiragino Sans GB', 'PingFang SC', 'Arial Unicode MS', 'DejaVu Sans', sans-serif; text-anchor: end" x="27.853438" y="165.980518" transform="rotate(-0 27.853438 165.980518)">4</text>
     </g>
    </g>
    <g id="ytick_6">
     <g id="line2d_34">
      <path d="M 34.853438 130.988561 
L 399.263437 130.988561 
" clip-path="url(#p87b90af6ac)" style="fill: none; stroke: #b0b0b0; stroke-opacity: 0.22; stroke-width: 0.6; stroke-linecap: square"/>
     </g>
     <g id="line2d_35">
      <g>
       <use xlink:href="#mcb7b0945da" x="34.853438" y="130.988561" style="stroke: #000000; stroke-width: 0.8"/>
      </g>
     </g>
     <g id="text_16">
      <text style="font-size: 9px; font-family: 'Helvetica Neue', 'Arial', 'Hiragino Sans GB', 'PingFang SC', 'Arial Unicode MS', 'DejaVu Sans', sans-serif; text-anchor: end" x="27.853438" y="135.272561" transform="rotate(-0 27.853438 135.272561)">5</text>
     </g>
    </g>
    <g id="ytick_7">
     <g id="line2d_36">
      <path d="M 34.853438 100.280605 
L 399.263437 100.280605 
" clip-path="url(#p87b90af6ac)" style="fill: none; stroke: #b0b0b0; stroke-opacity: 0.22; stroke-width: 0.6; stroke-linecap: square"/>
     </g>
     <g id="line2d_37">
      <g>
       <use xlink:href="#mcb7b0945da" x="34.853438" y="100.280605" style="stroke: #000000; stroke-width: 0.8"/>
      </g>
     </g>
     <g id="text_17">
      <text style="font-size: 9px; font-family: 'Helvetica Neue', 'Arial', 'Hiragino Sans GB', 'PingFang SC', 'Arial Unicode MS', 'DejaVu Sans', sans-serif; text-anchor: end" x="27.853438" y="104.564605" transform="rotate(-0 27.853438 104.564605)">6</text>
     </g>
    </g>
    <g id="ytick_8">
     <g id="line2d_38">
      <path d="M 34.853438 69.572649 
L 399.263437 69.572649 
" clip-path="url(#p87b90af6ac)" style="fill: none; stroke: #b0b0b0; stroke-opacity: 0.22; stroke-width: 0.6; stroke-linecap: square"/>
     </g>
     <g id="line2d_39">
      <g>
       <use xlink:href="#mcb7b0945da" x="34.853438" y="69.572649" style="stroke: #000000; stroke-width: 0.8"/>
      </g>
     </g>
     <g id="text_18">
      <text style="font-size: 9px; font-family: 'Helvetica Neue', 'Arial', 'Hiragino Sans GB', 'PingFang SC', 'Arial Unicode MS', 'DejaVu Sans', sans-serif; text-anchor: end" x="27.853438" y="73.856649" transform="rotate(-0 27.853438 73.856649)">7</text>
     </g>
    </g>
    <g id="ytick_9">
     <g id="line2d_40">
      <path d="M 34.853438 38.864692 
L 399.263437 38.864692 
" clip-path="url(#p87b90af6ac)" style="fill: none; stroke: #b0b0b0; stroke-opacity: 0.22; stroke-width: 0.6; stroke-linecap: square"/>
     </g>
     <g id="line2d_41">
      <g>
       <use xlink:href="#mcb7b0945da" x="34.853438" y="38.864692" style="stroke: #000000; stroke-width: 0.8"/>
      </g>
     </g>
     <g id="text_19">
      <text style="font-size: 9px; font-family: 'Helvetica Neue', 'Arial', 'Hiragino Sans GB', 'PingFang SC', 'Arial Unicode MS', 'DejaVu Sans', sans-serif; text-anchor: end" x="27.853438" y="43.148692" transform="rotate(-0 27.853438 43.148692)">8</text>
     </g>
    </g>
    <g id="text_20">
     <text style="font-size: 10px; font-family: 'Helvetica Neue', 'Arial', 'Hiragino Sans GB', 'PingFang SC', 'Arial Unicode MS', 'DejaVu Sans', sans-serif; text-anchor: middle" x="16.72" y="154.32" transform="rotate(-90 16.72 154.32)">cross-entropy (nats)</text>
    </g>
   </g>
   <g id="patch_3">
    <path d="M 34.853438 284.715 
L 34.853438 23.925 
" style="fill: none; stroke: #000000; stroke-width: 0.8; stroke-linejoin: miter; stroke-linecap: square"/>
   </g>
   <g id="patch_4">
    <path d="M 34.853438 284.715 
L 399.263437 284.715 
" style="fill: none; stroke: #000000; stroke-width: 0.8; stroke-linejoin: miter; stroke-linecap: square"/>
   </g>
   <g id="line2d_42">
    <path d="M 36.675488 51.281902 
L 38.497538 59.054611 
L 40.319588 67.934195 
L 42.141638 82.567279 
L 43.963688 93.641158 
L 45.785738 99.953185 
L 47.607788 104.188174 
L 49.429838 107.554632 
L 53.073937 113.360827 
L 54.895988 115.604961 
L 56.718038 117.554075 
L 58.540087 118.626017 
L 65.828288 124.087845 
L 67.650338 124.865187 
L 69.472387 126.796168 
L 71.294437 127.688269 
L 73.116488 129.018065 
L 74.938537 128.81724 
L 76.760587 130.220088 
L 78.582638 130.581036 
L 80.404687 131.948209 
L 84.048787 133.259619 
L 85.870837 133.580533 
L 91.336987 135.597384 
L 93.159037 135.74384 
L 94.981087 136.027947 
L 96.803137 137.57649 
L 98.625187 140.359793 
L 102.269287 150.226646 
L 104.091337 155.457451 
L 105.913387 159.348103 
L 107.735437 162.240391 
L 113.201587 168.122533 
L 115.023637 168.781605 
L 118.667737 168.837877 
L 120.489787 169.922015 
L 122.311837 170.855906 
L 124.133887 171.076257 
L 125.955937 171.162422 
L 127.777987 170.95454 
L 129.600037 171.62201 
L 131.422087 171.551647 
L 133.244137 171.957391 
L 135.066187 171.655776 
L 136.888237 172.346406 
L 138.710287 172.290937 
L 140.532337 172.583532 
L 142.354387 172.323009 
L 145.998487 172.678705 
L 147.820537 173.289044 
L 149.642587 174.138955 
L 151.464637 174.782797 
L 153.286687 174.409864 
L 155.108737 174.457062 
L 156.930787 174.250862 
L 158.752837 175.517023 
L 160.574887 178.316721 
L 162.396937 182.762514 
L 164.218987 188.391019 
L 166.041037 192.789301 
L 167.863087 195.995822 
L 169.685137 197.739191 
L 173.329237 200.093863 
L 175.151287 201.438024 
L 178.795387 201.538328 
L 180.617437 201.507364 
L 182.439487 202.393271 
L 186.083587 201.892482 
L 187.905637 200.895099 
L 189.727687 201.731973 
L 191.549737 202.08946 
L 193.371787 203.240634 
L 195.193837 203.439292 
L 197.015887 203.259367 
L 198.837937 202.729551 
L 200.659987 202.944625 
L 202.482037 203.31356 
L 204.304087 204.0295 
L 206.126137 204.13049 
L 207.948187 204.431476 
L 209.770237 205.244966 
L 211.592287 205.872656 
L 213.414337 206.623063 
L 215.236387 205.858904 
L 217.058437 205.464398 
L 218.880487 205.279366 
L 220.702537 206.479481 
L 224.346637 210.831524 
L 226.168687 213.57302 
L 227.990737 214.536753 
L 229.812787 216.174829 
L 231.634837 216.668061 
L 233.456887 218.61399 
L 235.278937 219.129981 
L 237.100987 219.919632 
L 238.923037 219.749157 
L 240.745087 220.174786 
L 242.567137 219.904765 
L 244.389187 220.680198 
L 246.211237 220.353752 
L 248.033287 220.872811 
L 249.855337 220.535629 
L 253.499437 221.233634 
L 255.321487 221.260242 
L 257.143537 221.807366 
L 258.965587 221.724376 
L 260.787637 222.126392 
L 262.609687 221.888711 
L 264.431737 222.367015 
L 266.253787 222.308334 
L 268.075837 222.402594 
L 269.897887 222.677442 
L 271.719937 223.120713 
L 273.541987 224.027315 
L 275.364037 224.40902 
L 277.186087 224.438041 
L 279.008137 224.219513 
L 280.830187 224.369059 
L 282.652237 224.961633 
L 284.474287 226.162631 
L 286.296337 226.836259 
L 288.118387 228.245321 
L 289.940437 228.919621 
L 291.762487 230.06973 
L 293.584537 230.285828 
L 297.228637 231.193848 
L 299.050687 231.387563 
L 302.694787 231.451485 
L 304.516837 232.350397 
L 308.160937 232.24514 
L 309.982987 232.507218 
L 311.805037 233.172823 
L 313.627087 233.631291 
L 315.449137 233.25588 
L 317.271187 233.155928 
L 319.093237 233.234691 
L 322.737337 233.85742 
L 324.559387 234.065131 
L 326.381437 233.774755 
L 328.203487 233.978409 
L 330.025537 234.61645 
L 331.847587 235.524471 
L 333.669637 236.03582 
L 337.313737 236.367631 
L 339.135787 236.139571 
L 342.779887 236.533067 
L 344.601937 237.033089 
L 346.423987 237.706638 
L 348.246037 237.987142 
L 350.068087 239.100934 
L 351.890137 239.351761 
L 353.712187 240.147643 
L 355.534237 240.289402 
L 359.178337 240.211957 
L 362.822437 240.116633 
L 366.466537 240.818532 
L 368.288587 241.349433 
L 371.932687 241.686716 
L 373.754737 241.917459 
L 375.576787 242.615482 
L 377.398837 242.640414 
L 379.220887 242.948617 
L 381.042937 243.046173 
L 384.687037 244.301324 
L 388.331137 244.426862 
L 390.153187 244.335413 
L 395.619337 245.831728 
L 399.263437 245.757996 
L 399.263437 245.757996 
" clip-path="url(#p87b90af6ac)" style="fill: none; stroke: #2d6f9f; stroke-width: 1.4; stroke-linecap: square"/>
   </g>
   <g id="line2d_43">
    <path d="M 36.675488 52.958337 
L 38.497538 62.382057 
L 40.319588 70.458451 
L 42.141638 84.576172 
L 43.963688 94.513198 
L 45.785738 101.020548 
L 47.607788 105.756758 
L 49.429838 109.353109 
L 51.251888 112.157124 
L 53.073937 114.321778 
L 56.718038 117.893052 
L 58.540087 119.68014 
L 60.362138 121.058524 
L 64.006237 123.457821 
L 67.650338 126.037377 
L 80.404687 132.163901 
L 82.226737 132.751405 
L 89.514937 135.80996 
L 91.336987 136.356882 
L 94.981087 137.605368 
L 96.803137 138.180962 
L 98.625187 138.568135 
L 100.447237 138.419984 
L 102.269287 137.914571 
L 105.913387 136.683164 
L 109.557487 136.036992 
L 111.379537 135.460902 
L 113.201587 135.179875 
L 115.023637 134.007614 
L 118.667737 133.697658 
L 120.489787 134.504299 
L 125.955937 134.808685 
L 127.777987 135.237049 
L 129.600037 135.399883 
L 131.422087 135.258909 
L 133.244137 135.298493 
L 135.066187 135.460727 
L 136.888237 135.779569 
L 138.710287 135.834654 
L 142.354387 136.37607 
L 145.998487 136.722015 
L 149.642587 137.274028 
L 151.464637 137.371286 
L 155.108737 136.766608 
L 156.930787 136.764487 
L 158.752837 137.153794 
L 160.574887 137.066766 
L 162.396937 135.325113 
L 166.041037 130.54935 
L 167.863087 129.168933 
L 169.685137 127.61063 
L 173.329237 126.558037 
L 175.151287 126.532615 
L 176.973337 125.625948 
L 178.795387 125.300871 
L 180.617437 125.303881 
L 182.439487 125.616334 
L 184.261537 125.293905 
L 186.083587 125.23515 
L 187.905637 124.940172 
L 189.727687 125.251207 
L 191.549737 124.83136 
L 193.371787 124.777679 
L 195.193837 124.378274 
L 197.015887 124.198345 
L 200.659987 123.0681 
L 202.482037 122.988219 
L 204.304087 123.413094 
L 206.126137 123.528422 
L 209.770237 123.298923 
L 213.414337 122.884119 
L 215.236387 122.439672 
L 218.880487 122.306307 
L 220.702537 122.302613 
L 222.524587 121.627171 
L 224.346637 119.574552 
L 226.168687 116.912886 
L 229.812787 113.575457 
L 231.634837 113.14755 
L 233.456887 111.562511 
L 235.278937 111.589104 
L 237.100987 110.174181 
L 238.923037 110.47071 
L 240.745087 110.254401 
L 242.567137 110.788946 
L 244.389187 110.734155 
L 246.211237 109.958571 
L 248.033287 109.88926 
L 249.855337 109.605488 
L 251.677387 109.712288 
L 253.499437 109.386986 
L 255.321487 108.889546 
L 257.143537 108.555241 
L 258.965587 108.505421 
L 260.787637 107.741077 
L 262.609687 108.180079 
L 264.431737 107.295184 
L 266.253787 107.252029 
L 268.075837 106.76071 
L 269.897887 107.363967 
L 271.719937 107.095102 
L 273.541987 106.109704 
L 275.364037 105.603495 
L 277.186087 105.555943 
L 279.008137 105.737993 
L 280.830187 105.078212 
L 282.652237 104.864102 
L 284.474287 103.258965 
L 286.296337 101.858693 
L 288.118387 99.704393 
L 289.940437 98.907767 
L 291.762487 97.844582 
L 293.584537 97.582916 
L 297.228637 96.148639 
L 299.050687 95.884462 
L 304.516837 96.434424 
L 308.160937 96.007385 
L 309.982987 94.515508 
L 311.805037 93.941268 
L 313.627087 92.884127 
L 315.449137 93.015212 
L 317.271187 92.775929 
L 319.093237 92.731711 
L 320.915287 93.070447 
L 322.737337 93.764895 
L 324.559387 94.133887 
L 326.381437 93.350606 
L 328.203487 91.785327 
L 330.025537 91.669901 
L 331.847587 91.791054 
L 333.669637 91.221095 
L 335.491687 89.866129 
L 337.313737 88.863304 
L 339.135787 88.756071 
L 340.957837 89.248275 
L 342.779887 89.136963 
L 344.601937 88.664549 
L 346.423987 86.221068 
L 348.246037 84.657743 
L 350.068087 82.805108 
L 351.890137 82.128213 
L 353.712187 81.593759 
L 355.534237 80.820795 
L 357.356287 80.423671 
L 359.178337 79.514963 
L 361.000387 80.794224 
L 364.644487 81.738929 
L 366.466537 80.833612 
L 368.288587 80.175981 
L 370.110637 80.07687 
L 371.932687 80.206105 
L 373.754737 80.723269 
L 375.576787 80.260079 
L 377.398837 79.541038 
L 379.220887 78.246713 
L 381.042937 77.281868 
L 382.864987 76.481973 
L 384.687037 76.829794 
L 388.331137 76.172683 
L 390.153187 75.08908 
L 391.975237 74.949993 
L 393.797287 74.070221 
L 399.263437 72.425232 
L 399.263437 72.425232 
" clip-path="url(#p87b90af6ac)" style="fill: none; stroke-dasharray: 4.44,1.92; stroke-dashoffset: 0; stroke: #2d6f9f; stroke-opacity: 0.85; stroke-width: 1.2"/>
   </g>
   <g id="line2d_44">
    <path d="M 36.675488 48.813085 
L 38.497538 54.382903 
L 40.319588 56.973025 
L 43.963688 72.973019 
L 47.607788 98.7971 
L 49.429838 109.777857 
L 51.251888 116.728885 
L 53.073937 121.009951 
L 54.895988 124.516583 
L 56.718038 127.47881 
L 58.540087 129.845963 
L 60.362138 131.719642 
L 62.184187 133.848943 
L 64.006237 135.647208 
L 65.828288 136.918999 
L 67.650338 137.810949 
L 69.472387 139.607862 
L 71.294437 140.849216 
L 73.116488 142.246192 
L 74.938537 142.63581 
L 76.760587 144.174591 
L 78.582638 144.812681 
L 80.404687 146.041183 
L 82.226737 146.998381 
L 84.048787 147.821437 
L 85.870837 148.161811 
L 89.514937 149.654258 
L 91.336987 150.589892 
L 94.981087 151.260957 
L 96.803137 152.537698 
L 98.625187 154.664744 
L 100.447237 158.387662 
L 102.269287 160.80551 
L 104.091337 164.51211 
L 107.735437 172.302832 
L 109.557487 173.54411 
L 111.379537 173.958288 
L 113.201587 176.206149 
L 115.023637 179.082233 
L 116.845687 180.582958 
L 118.667737 180.280806 
L 120.489787 180.261039 
L 122.311837 180.43853 
L 124.133887 180.991389 
L 125.955937 181.195609 
L 127.777987 180.887177 
L 129.600037 181.514563 
L 131.422087 181.144054 
L 133.244137 181.707627 
L 135.066187 180.842612 
L 136.888237 181.100607 
L 138.710287 180.772396 
L 140.532337 181.205334 
L 142.354387 181.392148 
L 144.176437 182.525073 
L 145.998487 182.860517 
L 149.642587 183.851779 
L 151.464637 184.562447 
L 155.108737 184.81377 
L 156.930787 184.4023 
L 158.752837 187.400519 
L 160.574887 192.01838 
L 162.396937 199.673657 
L 164.218987 204.015428 
L 166.041037 208.012515 
L 167.863087 210.60889 
L 169.685137 210.964487 
L 171.507187 210.465616 
L 173.329237 210.140414 
L 175.151287 210.536779 
L 176.973337 211.071887 
L 178.795387 211.149708 
L 180.617437 213.379297 
L 182.439487 213.841147 
L 184.261537 213.299114 
L 186.083587 212.509641 
L 189.727687 211.900248 
L 193.371787 212.50842 
L 195.193837 213.118062 
L 197.015887 213.106401 
L 198.837937 212.905699 
L 200.659987 212.5354 
L 204.304087 212.771196 
L 206.126137 212.717445 
L 207.948187 212.085583 
L 209.770237 212.244798 
L 211.592287 213.44097 
L 213.414337 214.465253 
L 215.236387 214.665121 
L 217.058437 214.241264 
L 218.880487 213.945601 
L 220.702537 216.027958 
L 222.524587 219.801249 
L 224.346637 223.935102 
L 226.168687 225.867131 
L 229.812787 227.64805 
L 233.456887 229.191232 
L 235.278937 229.45301 
L 237.100987 229.414373 
L 238.923037 228.253848 
L 240.745087 225.353113 
L 242.567137 224.676566 
L 244.389187 225.524342 
L 246.211237 228.125477 
L 248.033287 228.616704 
L 249.855337 228.13318 
L 251.677387 227.274493 
L 253.499437 227.264146 
L 255.321487 227.828731 
L 257.143537 228.755994 
L 260.787637 228.361046 
L 262.609687 228.3338 
L 264.431737 229.094385 
L 266.253787 229.270596 
L 268.075837 229.160347 
L 269.897887 228.922076 
L 271.719937 228.818456 
L 273.541987 229.207737 
L 275.364037 230.013531 
L 277.186087 230.445358 
L 280.830187 231.104493 
L 282.652237 232.083543 
L 284.474287 233.701938 
L 288.118387 236.096868 
L 289.940437 236.81118 
L 291.762487 238.131841 
L 293.584537 238.583344 
L 295.406587 239.316443 
L 297.228637 238.423814 
L 299.050687 238.551587 
L 300.872737 237.321992 
L 302.694787 237.383463 
L 304.516837 236.954408 
L 308.160937 236.975819 
L 309.982987 236.892782 
L 311.805037 237.268725 
L 313.627087 236.982412 
L 315.449137 236.975239 
L 317.271187 237.45642 
L 319.093237 237.703749 
L 320.915287 237.718854 
L 322.737337 237.404534 
L 324.559387 237.590147 
L 326.381437 237.164743 
L 328.203487 237.316208 
L 330.025537 237.776353 
L 333.669637 239.093948 
L 335.491687 239.269725 
L 337.313737 239.771439 
L 342.779887 240.947136 
L 344.601937 241.44972 
L 346.423987 242.745819 
L 348.246037 243.528676 
L 350.068087 244.443911 
L 351.890137 244.806259 
L 353.712187 246.321254 
L 355.534237 246.819368 
L 357.356287 247.025133 
L 359.178337 246.324083 
L 361.000387 246.16546 
L 362.822437 244.826122 
L 364.644487 241.38365 
L 366.466537 240.934173 
L 368.288587 241.586619 
L 370.110637 244.489263 
L 371.932687 243.695267 
L 373.754737 244.105886 
L 375.576787 244.335456 
L 377.398837 244.914606 
L 379.220887 244.644966 
L 381.042937 245.118496 
L 382.864987 245.471275 
L 384.687037 246.089943 
L 388.331137 246.043421 
L 390.153187 246.379648 
L 391.975237 246.455812 
L 393.797287 246.938435 
L 395.619337 247.254257 
L 397.441387 247.711504 
L 399.263437 247.939817 
L 399.263437 247.939817 
" clip-path="url(#p87b90af6ac)" style="fill: none; stroke: #c4493d; stroke-width: 1.4; stroke-linecap: square"/>
   </g>
   <g id="line2d_45">
    <path d="M 36.675488 50.634366 
L 38.497538 55.863446 
L 40.319588 58.176243 
L 42.141638 65.791185 
L 43.963688 75.008288 
L 47.607788 101.783445 
L 49.429838 112.002703 
L 51.251888 118.557663 
L 53.073937 122.415248 
L 54.895988 125.512999 
L 58.540087 130.891196 
L 62.184187 134.575377 
L 64.006237 136.311886 
L 65.828288 137.421501 
L 67.650338 138.722834 
L 69.472387 139.778754 
L 71.294437 141.316414 
L 85.870837 149.079774 
L 89.514937 150.750381 
L 96.803137 153.269599 
L 98.625187 153.607254 
L 100.447237 153.558816 
L 102.269287 153.321205 
L 104.091337 152.515244 
L 105.913387 151.29136 
L 107.735437 150.271156 
L 109.557487 149.758071 
L 111.379537 149.852402 
L 113.201587 149.204653 
L 116.845687 148.757136 
L 118.667737 149.181752 
L 120.489787 149.134288 
L 122.311837 149.259539 
L 124.133887 149.018837 
L 127.777987 149.161767 
L 131.422087 149.610737 
L 133.244137 149.671392 
L 135.066187 150.291288 
L 136.888237 150.551243 
L 144.176437 151.023228 
L 145.998487 151.013413 
L 147.820537 151.260196 
L 149.642587 151.772615 
L 155.108737 152.530217 
L 156.930787 152.465481 
L 158.752837 151.101623 
L 160.574887 148.999577 
L 162.396937 145.825085 
L 164.218987 143.585917 
L 166.041037 140.683663 
L 167.863087 139.48285 
L 169.685137 137.935922 
L 171.507187 137.668961 
L 173.329237 136.852086 
L 175.151287 136.855721 
L 176.973337 137.012747 
L 180.617437 135.187457 
L 182.439487 134.6385 
L 184.261537 135.014703 
L 186.083587 135.203815 
L 189.727687 134.949641 
L 193.371787 134.977116 
L 195.193837 135.120881 
L 198.837937 134.547751 
L 202.482037 134.974425 
L 206.126137 135.639457 
L 207.948187 136.345644 
L 211.592287 135.663104 
L 213.414337 134.951383 
L 218.880487 134.810055 
L 220.702537 133.728371 
L 222.524587 131.04702 
L 224.346637 128.065057 
L 226.168687 126.13352 
L 227.990737 124.396608 
L 229.812787 124.254068 
L 231.634837 122.508153 
L 233.456887 122.233345 
L 235.278937 121.028128 
L 237.100987 121.857672 
L 238.923037 121.884848 
L 240.745087 122.718293 
L 242.567137 122.040356 
L 244.389187 120.974903 
L 246.211237 118.852938 
L 248.033287 118.523687 
L 249.855337 118.567039 
L 251.677387 120.184918 
L 253.499437 119.740943 
L 255.321487 119.826405 
L 257.143537 117.757797 
L 258.965587 117.439948 
L 260.787637 117.748256 
L 262.609687 117.914216 
L 264.431737 118.374153 
L 266.253787 118.480214 
L 268.075837 118.78608 
L 273.541987 118.473509 
L 275.364037 117.98978 
L 277.186087 117.857897 
L 279.008137 117.85021 
L 280.830187 117.340277 
L 282.652237 114.769212 
L 284.474287 112.660231 
L 286.296337 111.27216 
L 288.118387 110.50033 
L 289.940437 107.736032 
L 291.762487 107.521468 
L 293.584537 106.679137 
L 295.406587 107.818036 
L 297.228637 106.194505 
L 299.050687 106.03373 
L 300.872737 106.466205 
L 302.694787 107.108978 
L 304.516837 105.862963 
L 306.338887 105.914894 
L 308.160937 104.171014 
L 309.982987 104.723949 
L 311.805037 104.211123 
L 313.627087 104.44526 
L 315.449137 105.488858 
L 317.271187 104.462389 
L 319.093237 105.653774 
L 320.915287 104.454587 
L 322.737337 104.874382 
L 324.559387 104.309433 
L 326.381437 104.990446 
L 328.203487 104.427836 
L 330.025537 102.578005 
L 331.847587 102.446417 
L 333.669637 101.976388 
L 335.491687 102.734385 
L 337.313737 101.805615 
L 339.135787 101.188574 
L 340.957837 101.188273 
L 342.779887 100.527129 
L 344.601937 100.16567 
L 346.423987 97.292544 
L 348.246037 96.067419 
L 350.068087 93.481561 
L 351.890137 93.014563 
L 353.712187 89.860755 
L 355.534237 90.860652 
L 357.356287 90.837845 
L 359.178337 92.399821 
L 361.000387 90.730511 
L 362.822437 91.268936 
L 364.644487 92.551119 
L 366.466537 92.282158 
L 368.288587 92.408234 
L 370.110637 89.885829 
L 371.932687 90.844746 
L 373.754737 89.211235 
L 375.576787 90.007455 
L 377.398837 89.416867 
L 379.220887 89.805122 
L 382.864987 88.298616 
L 384.687037 88.35969 
L 386.509087 87.834417 
L 388.331137 88.101313 
L 390.153187 85.953613 
L 391.975237 84.963473 
L 393.797287 85.185612 
L 395.619337 85.580938 
L 397.441387 86.185653 
L 399.263437 85.556448 
L 399.263437 85.556448 
" clip-path="url(#p87b90af6ac)" style="fill: none; stroke-dasharray: 4.44,1.92; stroke-dashoffset: 0; stroke: #c4493d; stroke-opacity: 0.85; stroke-width: 1.2"/>
   </g>
   <g id="line2d_46">
    <path d="M 36.675488 48.240175 
L 38.497538 53.333168 
L 40.319588 55.959619 
L 42.141638 62.118355 
L 43.963688 67.39631 
L 45.785738 73.906872 
L 47.607788 79.952333 
L 49.429838 85.084519 
L 53.073937 92.763719 
L 54.895988 95.679758 
L 56.718038 99.304923 
L 58.540087 104.516927 
L 60.362138 111.821421 
L 62.184187 119.778554 
L 64.006237 125.450841 
L 65.828288 129.48913 
L 67.650338 132.164028 
L 69.472387 135.037398 
L 73.116488 139.099409 
L 74.938537 140.339923 
L 76.760587 142.184834 
L 78.582638 143.183881 
L 80.404687 144.581443 
L 82.226737 145.74707 
L 84.048787 146.702804 
L 85.870837 147.082474 
L 87.692887 147.663364 
L 91.336987 149.694013 
L 94.981087 150.908395 
L 98.625187 152.743291 
L 100.447237 154.132941 
L 102.269287 155.364763 
L 104.091337 156.069862 
L 105.913387 156.55844 
L 107.735437 156.752143 
L 109.557487 157.170583 
L 113.201587 158.805962 
L 115.023637 160.302741 
L 116.845687 161.479708 
L 118.667737 165.984546 
L 120.489787 172.298961 
L 122.311837 179.181704 
L 124.133887 183.460799 
L 125.955937 185.82649 
L 127.777987 186.375013 
L 129.600037 187.104285 
L 131.422087 186.621352 
L 133.244137 186.840096 
L 135.066187 186.065954 
L 136.888237 186.696156 
L 138.710287 186.914823 
L 140.532337 187.550335 
L 142.354387 186.907997 
L 144.176437 187.221248 
L 145.998487 187.217893 
L 147.820537 188.493345 
L 149.642587 189.396543 
L 151.464637 190.139528 
L 153.286687 189.789545 
L 155.108737 189.871927 
L 156.930787 189.783883 
L 158.752837 189.984144 
L 160.574887 190.66479 
L 162.396937 191.081665 
L 164.218987 192.020945 
L 166.041037 191.716763 
L 167.863087 192.972689 
L 169.685137 193.596419 
L 171.507187 193.915673 
L 173.329237 194.883138 
L 175.151287 196.383795 
L 176.973337 198.843948 
L 178.795387 201.821025 
L 180.617437 208.522535 
L 182.439487 217.131546 
L 184.261537 223.649342 
L 186.083587 226.573486 
L 187.905637 227.316346 
L 189.727687 228.290183 
L 191.549737 228.902229 
L 197.015887 228.227049 
L 198.837937 228.379819 
L 200.659987 228.172559 
L 206.126137 228.073971 
L 209.770237 227.539537 
L 213.414337 228.822154 
L 215.236387 229.164886 
L 217.058437 228.815159 
L 220.702537 230.007569 
L 222.524587 230.992941 
L 224.346637 230.669517 
L 226.168687 231.398368 
L 227.990737 231.283968 
L 229.812787 232.532532 
L 231.634837 232.842336 
L 233.456887 233.720489 
L 235.278937 234.316713 
L 238.923037 236.113528 
L 240.745087 238.213218 
L 246.211237 247.433483 
L 248.033287 250.546934 
L 249.855337 253.282478 
L 251.677387 254.092768 
L 253.499437 253.82319 
L 255.321487 253.297125 
L 257.143537 252.914356 
L 258.965587 253.127336 
L 260.787637 253.739363 
L 262.609687 254.058979 
L 264.431737 253.734531 
L 266.253787 253.89168 
L 269.897887 253.285869 
L 271.719937 253.251042 
L 273.541987 253.571134 
L 275.364037 254.681895 
L 279.008137 255.405122 
L 280.830187 255.167032 
L 282.652237 255.200447 
L 286.296337 256.024506 
L 288.118387 256.25854 
L 289.940437 256.048386 
L 291.762487 256.925765 
L 293.584537 257.290307 
L 295.406587 257.916763 
L 297.228637 258.122572 
L 299.050687 258.676437 
L 300.872737 259.482874 
L 302.694787 259.984095 
L 308.160937 263.718072 
L 309.982987 264.345888 
L 311.805037 264.704288 
L 313.627087 265.232438 
L 317.271187 265.211675 
L 319.093237 265.047727 
L 320.915287 265.857234 
L 322.737337 266.358043 
L 324.559387 266.622873 
L 326.381437 266.483599 
L 328.203487 266.679606 
L 330.025537 266.686672 
L 331.847587 266.344088 
L 333.669637 266.449517 
L 337.313737 267.589016 
L 339.135787 267.673587 
L 342.779887 267.487979 
L 344.601937 267.554811 
L 346.423987 268.158352 
L 348.246037 268.588499 
L 350.068087 268.715451 
L 351.890137 268.487263 
L 355.534237 269.123358 
L 361.000387 268.935833 
L 362.822437 269.56753 
L 364.644487 269.868356 
L 366.466537 268.757252 
L 368.288587 268.765309 
L 370.110637 268.990654 
L 371.932687 270.769998 
L 373.754737 270.993606 
L 375.576787 271.61908 
L 377.398837 271.482353 
L 379.220887 271.693256 
L 381.042937 271.592125 
L 382.864987 272.176206 
L 388.331137 272.400524 
L 391.975237 272.860909 
L 393.797287 272.723322 
L 395.619337 272.843112 
L 397.441387 272.737631 
L 399.263437 272.80356 
L 399.263437 272.80356 
" clip-path="url(#p87b90af6ac)" style="fill: none; stroke: #c58a0b; stroke-width: 1.4; stroke-linecap: square"/>
   </g>
   <g id="line2d_47">
    <path d="M 36.675488 49.964378 
L 38.497538 54.576496 
L 40.319588 56.868087 
L 42.141638 62.569342 
L 43.963688 67.530356 
L 47.607788 80.655793 
L 49.429838 86.240904 
L 51.251888 89.734929 
L 53.073937 92.861822 
L 54.895988 95.570743 
L 56.718038 99.283273 
L 58.540087 105.32649 
L 62.184187 120.651713 
L 64.006237 126.198564 
L 65.828288 130.134288 
L 67.650338 133.154902 
L 69.472387 135.440248 
L 71.294437 137.48749 
L 73.116488 139.149149 
L 74.938537 140.965278 
L 76.760587 142.396072 
L 80.404687 144.85267 
L 84.048787 146.950676 
L 87.692887 148.853447 
L 89.514937 149.92283 
L 94.981087 152.361485 
L 96.803137 152.952235 
L 98.625187 153.765977 
L 100.447237 154.253869 
L 102.269287 155.265717 
L 104.091337 155.839799 
L 105.913387 156.620903 
L 111.379537 158.175455 
L 115.023637 159.049557 
L 116.845687 159.275136 
L 118.667737 158.039555 
L 120.489787 155.7467 
L 122.311837 152.5831 
L 124.133887 150.834201 
L 125.955937 150.008192 
L 127.777987 149.850344 
L 131.422087 150.035466 
L 133.244137 150.452175 
L 135.066187 150.50347 
L 138.710287 151.132575 
L 140.532337 151.295659 
L 142.354387 151.251912 
L 144.176437 151.002863 
L 149.642587 151.155598 
L 151.464637 151.357293 
L 153.286687 151.366081 
L 155.108737 151.645152 
L 158.752837 151.60436 
L 160.574887 151.26034 
L 162.396937 151.157325 
L 166.041037 151.336863 
L 167.863087 151.229418 
L 176.973337 149.241143 
L 178.795387 147.998311 
L 180.617437 143.697744 
L 182.439487 137.313817 
L 184.261537 131.565586 
L 186.083587 128.425278 
L 189.727687 126.759579 
L 193.371787 126.272492 
L 195.193837 126.140962 
L 198.837937 126.363598 
L 200.659987 126.175467 
L 202.482037 125.871319 
L 204.304087 125.431353 
L 206.126137 125.361198 
L 207.948187 125.0132 
L 209.770237 124.795141 
L 211.592287 124.204106 
L 213.414337 123.900835 
L 215.236387 123.739725 
L 217.058437 123.860897 
L 220.702537 122.687637 
L 222.524587 121.553112 
L 224.346637 121.765476 
L 226.168687 120.630606 
L 227.990737 120.540887 
L 229.812787 119.647963 
L 231.634837 119.397086 
L 237.100987 116.596375 
L 238.923037 115.952222 
L 240.745087 114.160715 
L 242.567137 109.547669 
L 246.211237 98.994928 
L 248.033287 95.785198 
L 249.855337 93.524573 
L 251.677387 93.308416 
L 253.499437 93.691513 
L 255.321487 94.433023 
L 257.143537 94.194755 
L 258.965587 94.70599 
L 262.609687 92.441441 
L 264.431737 91.769107 
L 266.253787 91.663338 
L 268.075837 92.221683 
L 269.897887 91.258578 
L 271.719937 90.917982 
L 275.364037 89.390955 
L 277.186087 88.486296 
L 279.008137 88.444797 
L 280.830187 88.604628 
L 282.652237 88.479911 
L 284.474287 87.222145 
L 286.296337 86.866497 
L 288.118387 85.957176 
L 289.940437 85.39725 
L 291.762487 84.372324 
L 293.584537 84.12726 
L 295.406587 83.210452 
L 297.228637 82.4492 
L 299.050687 80.707236 
L 300.872737 79.975882 
L 302.694787 78.849955 
L 304.516837 76.422078 
L 308.160937 66.398314 
L 309.982987 62.354621 
L 311.805037 61.822757 
L 313.627087 61.975285 
L 315.449137 62.287215 
L 317.271187 62.801124 
L 319.093237 63.02439 
L 320.915287 63.974094 
L 322.737337 63.326666 
L 324.559387 62.364487 
L 326.381437 62.404945 
L 330.025537 62.037236 
L 333.669637 60.120728 
L 335.491687 59.749326 
L 337.313737 58.790079 
L 340.957837 58.985108 
L 342.779887 59.822281 
L 344.601937 59.533167 
L 346.423987 57.746925 
L 348.246037 56.939522 
L 350.068087 56.803745 
L 351.890137 57.805172 
L 353.712187 57.022707 
L 355.534237 55.979465 
L 357.356287 55.407889 
L 359.178337 55.330139 
L 361.000387 54.900847 
L 364.644487 51.948577 
L 366.466537 49.740322 
L 370.110637 41.021128 
L 371.932687 37.310384 
L 373.754737 37.392228 
L 375.576787 37.272386 
L 377.398837 37.828728 
L 379.220887 37.391429 
L 381.042937 37.944084 
L 382.864987 38.669481 
L 384.687037 38.838797 
L 388.331137 37.521742 
L 390.153187 36.71512 
L 391.975237 35.779091 
L 393.797287 36.106365 
L 395.619337 36.560861 
L 397.441387 37.229161 
L 399.263437 36.986554 
L 399.263437 36.986554 
" clip-path="url(#p87b90af6ac)" style="fill: none; stroke-dasharray: 4.44,1.92; stroke-dashoffset: 0; stroke: #c58a0b; stroke-opacity: 0.85; stroke-width: 1.2"/>
   </g>
   <g id="line2d_48">
    <path d="M 36.675488 48.607487 
L 38.497538 53.571778 
L 40.319588 56.257456 
L 42.141638 63.152105 
L 43.963688 68.82141 
L 45.785738 75.553267 
L 47.607788 81.094887 
L 49.429838 85.930271 
L 51.251888 89.8694 
L 53.073937 93.183403 
L 54.895988 95.963685 
L 56.718038 98.494025 
L 58.540087 99.979898 
L 60.362138 102.054963 
L 62.184187 104.466776 
L 64.006237 107.88809 
L 65.828288 109.910368 
L 67.650338 111.563284 
L 69.472387 113.547145 
L 71.294437 114.854757 
L 73.116488 116.379477 
L 74.938537 116.972023 
L 76.760587 118.874338 
L 78.582638 119.509772 
L 82.226737 121.665035 
L 87.692887 124.411722 
L 91.336987 126.171627 
L 93.159037 126.818342 
L 102.269287 132.087008 
L 104.091337 132.852625 
L 105.913387 133.80585 
L 107.735437 134.244545 
L 111.379537 135.550752 
L 113.201587 136.637371 
L 115.023637 137.913258 
L 116.845687 138.366303 
L 120.489787 139.680411 
L 122.311837 141.266855 
L 125.955937 143.171625 
L 127.777987 143.12286 
L 129.600037 144.297853 
L 131.422087 144.891702 
L 133.244137 146.187718 
L 135.066187 146.419912 
L 136.888237 147.611388 
L 138.710287 148.54936 
L 140.532337 149.681425 
L 142.354387 150.312794 
L 145.998487 151.299609 
L 147.820537 151.832701 
L 153.286687 155.138626 
L 155.108737 155.838474 
L 156.930787 155.809525 
L 158.752837 155.930796 
L 160.574887 156.956702 
L 162.396937 158.257208 
L 164.218987 159.220716 
L 166.041037 159.863931 
L 169.685137 162.110991 
L 171.507187 162.01638 
L 173.329237 162.748708 
L 175.151287 163.93726 
L 176.973337 165.297215 
L 178.795387 165.703274 
L 180.617437 166.270295 
L 184.261537 167.839663 
L 187.905637 168.328175 
L 189.727687 168.232265 
L 193.371787 169.632773 
L 195.193837 170.198916 
L 197.015887 169.192743 
L 198.837937 167.081588 
L 200.659987 167.09226 
L 202.482037 168.274453 
L 204.304087 170.859836 
L 206.126137 171.508153 
L 207.948187 171.816704 
L 211.592287 173.083907 
L 213.414337 173.538065 
L 215.236387 172.806923 
L 217.058437 173.123206 
L 218.880487 173.244413 
L 220.702537 173.501087 
L 222.524587 172.754888 
L 226.168687 174.232273 
L 227.990737 174.680412 
L 229.812787 174.1419 
L 231.634837 174.415699 
L 233.456887 175.169488 
L 235.278937 176.247066 
L 237.100987 176.684097 
L 238.923037 176.904442 
L 240.745087 176.746985 
L 242.567137 176.472139 
L 244.389187 177.366317 
L 246.211237 177.034445 
L 248.033287 177.319172 
L 249.855337 177.06293 
L 253.499437 177.483363 
L 255.321487 176.857247 
L 257.143537 177.310926 
L 258.965587 176.779826 
L 260.787637 177.369087 
L 262.609687 177.040661 
L 264.431737 177.79015 
L 266.253787 177.402597 
L 268.075837 177.538984 
L 271.719937 178.053655 
L 273.541987 179.243188 
L 275.364037 179.825145 
L 277.186087 180.691448 
L 279.008137 180.289843 
L 280.830187 180.219834 
L 282.652237 180.279791 
L 284.474287 180.581143 
L 286.296337 181.021097 
L 288.118387 180.665026 
L 289.940437 180.61863 
L 291.762487 179.989487 
L 293.584537 180.683612 
L 295.406587 180.869196 
L 297.228637 181.772382 
L 299.050687 181.738184 
L 302.694787 181.1975 
L 304.516837 182.491123 
L 306.338887 182.889602 
L 308.160937 182.821885 
L 309.982987 181.945427 
L 311.805037 182.349472 
L 313.627087 182.940149 
L 317.271187 183.081373 
L 319.093237 182.821182 
L 320.915287 183.001448 
L 322.737337 182.106601 
L 324.559387 181.714263 
L 326.381437 181.478244 
L 330.025537 183.873631 
L 331.847587 184.513572 
L 335.491687 184.306532 
L 337.313737 183.833656 
L 339.135787 184.093681 
L 340.957837 184.070741 
L 342.779887 184.882239 
L 344.601937 184.556812 
L 346.423987 184.867467 
L 348.246037 183.847296 
L 350.068087 184.0343 
L 351.890137 183.279374 
L 353.712187 183.691927 
L 355.534237 183.280067 
L 357.356287 183.492801 
L 359.178337 183.254123 
L 361.000387 183.888212 
L 362.822437 184.219725 
L 364.644487 184.728571 
L 366.466537 185.706374 
L 368.288587 186.390283 
L 370.110637 187.442036 
L 371.932687 187.089344 
L 373.754737 187.095253 
L 375.576787 186.881452 
L 377.398837 186.1866 
L 379.220887 186.137591 
L 381.042937 185.695772 
L 382.864987 186.129877 
L 384.687037 187.329419 
L 386.509087 187.706707 
L 388.331137 187.098533 
L 390.153187 185.997534 
L 391.975237 186.229628 
L 397.441387 187.846562 
L 399.263437 188.778616 
L 399.263437 188.778616 
" clip-path="url(#p87b90af6ac)" style="fill: none; stroke: #686d73; stroke-width: 1.4; stroke-linecap: square"/>
   </g>
   <g id="line2d_49">
    <path d="M 36.675488 50.287268 
L 38.497538 54.696555 
L 40.319588 57.05062 
L 42.141638 63.421415 
L 43.963688 69.309073 
L 45.785738 76.37188 
L 47.607788 81.768444 
L 49.429838 86.576798 
L 51.251888 90.1181 
L 53.073937 93.396115 
L 54.895988 95.890698 
L 56.718038 98.60014 
L 60.362138 102.884141 
L 62.184187 105.114898 
L 64.006237 108.097572 
L 67.650338 112.048651 
L 69.472387 113.684168 
L 71.294437 115.137299 
L 74.938537 117.536209 
L 76.760587 119.031306 
L 82.226737 122.094912 
L 87.692887 125.314739 
L 89.514937 126.07286 
L 93.159037 127.917788 
L 94.981087 129.190445 
L 100.447237 131.884153 
L 102.269287 131.812407 
L 104.091337 132.524015 
L 105.913387 133.400678 
L 107.735437 134.955288 
L 118.667737 139.845735 
L 120.489787 140.513396 
L 125.955937 143.116365 
L 127.777987 143.656109 
L 129.600037 144.463319 
L 131.422087 145.059748 
L 133.244137 145.995176 
L 135.066187 146.660503 
L 136.888237 147.768856 
L 140.532337 149.344445 
L 142.354387 149.978372 
L 145.998487 151.541278 
L 147.820537 151.964716 
L 149.642587 152.828261 
L 151.464637 153.862516 
L 153.286687 155.290419 
L 158.752837 157.748258 
L 160.574887 158.891635 
L 162.396937 159.690077 
L 164.218987 160.256214 
L 166.041037 160.957705 
L 169.685137 163.255843 
L 171.507187 163.763879 
L 173.329237 164.48784 
L 175.151287 165.082601 
L 176.973337 165.942159 
L 178.795387 166.464851 
L 180.617437 166.859844 
L 182.439487 167.377715 
L 184.261537 167.627812 
L 186.083587 168.26581 
L 189.727687 169.216022 
L 191.549737 169.33124 
L 193.371787 169.741868 
L 195.193837 169.888207 
L 197.015887 168.873899 
L 198.837937 167.377774 
L 200.659987 167.557904 
L 202.482037 169.291322 
L 204.304087 171.382687 
L 206.126137 171.849386 
L 209.770237 172.073021 
L 211.592287 172.405817 
L 215.236387 172.728002 
L 217.058437 172.983863 
L 218.880487 173.444593 
L 220.702537 173.754111 
L 222.524587 173.798186 
L 233.456887 175.067918 
L 235.278937 175.321743 
L 242.567137 175.841136 
L 246.211237 176.280962 
L 248.033287 176.268674 
L 251.677387 176.530792 
L 253.499437 176.719567 
L 257.143537 176.770303 
L 258.965587 176.905974 
L 262.609687 177.414041 
L 264.431737 177.662489 
L 266.253787 177.767174 
L 269.897887 177.751652 
L 275.364037 178.378737 
L 277.186087 178.341866 
L 295.406587 179.135006 
L 297.228637 179.363796 
L 306.338887 179.711726 
L 311.805037 179.937417 
L 315.449137 179.943518 
L 317.271187 179.962939 
L 320.915287 180.244855 
L 322.737337 180.356453 
L 326.381437 180.22058 
L 328.203487 180.317805 
L 331.847587 180.708862 
L 335.491687 180.794756 
L 339.135787 180.657754 
L 361.000387 181.273134 
L 364.644487 181.334266 
L 368.288587 181.450688 
L 373.754737 181.609427 
L 375.576787 181.516018 
L 381.042937 181.716046 
L 386.509087 181.779443 
L 397.441387 181.857605 
L 399.263437 181.804309 
L 399.263437 181.804309 
" clip-path="url(#p87b90af6ac)" style="fill: none; stroke-dasharray: 4.44,1.92; stroke-dashoffset: 0; stroke: #686d73; stroke-opacity: 0.85; stroke-width: 1.2"/>
   </g>
   <g id="text_21">
    <text style="font-weight: 500; font-size: 11px; font-family: 'Helvetica Neue', 'Arial', 'Hiragino Sans GB', 'PingFang SC', 'Arial Unicode MS', 'DejaVu Sans', sans-serif; text-anchor: middle" x="217.058437" y="17.925" transform="rotate(-0 217.058437 17.925)">Training (solid) and validation (dashed) loss</text>
   </g>
   <g id="legend_1">
    <g id="text_22">
     <text style="font-size: 9.5px; font-family: 'Helvetica Neue', 'Arial', 'Hiragino Sans GB', 'PingFang SC', 'Arial Unicode MS', 'DejaVu Sans', sans-serif; text-anchor: start" x="337.064141" y="40.619" transform="rotate(-0 337.064141 40.619)">injection arm</text>
    </g>
    <g id="line2d_50">
     <path d="M 337.873906 52.0095 
L 346.373906 52.0095 
L 354.873906 52.0095 
" style="fill: none; stroke: #2d6f9f; stroke-width: 1.4; stroke-linecap: square"/>
    </g>
    <g id="text_23">
     <text style="font-size: 8.5px; font-family: 'Helvetica Neue', 'Arial', 'Hiragino Sans GB', 'PingFang SC', 'Arial Unicode MS', 'DejaVu Sans', sans-serif; text-anchor: start" x="361.673906" y="54.9845" transform="rotate(-0 361.673906 54.9845)">input</text>
    </g>
    <g id="line2d_51">
     <path d="M 337.873906 66.162 
L 346.373906 66.162 
L 354.873906 66.162 
" style="fill: none; stroke: #c4493d; stroke-width: 1.4; stroke-linecap: square"/>
    </g>
    <g id="text_24">
     <text style="font-size: 8.5px; font-family: 'Helvetica Neue', 'Arial', 'Hiragino Sans GB', 'PingFang SC', 'Arial Unicode MS', 'DejaVu Sans', sans-serif; text-anchor: start" x="361.673906" y="69.137" transform="rotate(-0 361.673906 69.137)">y</text>
    </g>
    <g id="line2d_52">
     <path d="M 337.873906 80.3145 
L 346.373906 80.3145 
L 354.873906 80.3145 
" style="fill: none; stroke: #c58a0b; stroke-width: 1.4; stroke-linecap: square"/>
    </g>
    <g id="text_25">
     <text style="font-size: 8.5px; font-family: 'Helvetica Neue', 'Arial', 'Hiragino Sans GB', 'PingFang SC', 'Arial Unicode MS', 'DejaVu Sans', sans-serif; text-anchor: start" x="361.673906" y="83.2895" transform="rotate(-0 361.673906 83.2895)">v</text>
    </g>
    <g id="line2d_53">
     <path d="M 337.873906 94.467 
L 346.373906 94.467 
L 354.873906 94.467 
" style="fill: none; stroke: #686d73; stroke-width: 1.4; stroke-linecap: square"/>
    </g>
    <g id="text_26">
     <text style="font-size: 8.5px; font-family: 'Helvetica Neue', 'Arial', 'Hiragino Sans GB', 'PingFang SC', 'Arial Unicode MS', 'DejaVu Sans', sans-serif; text-anchor: start" x="361.673906" y="97.442" transform="rotate(-0 361.673906 97.442)">nogram</text>
    </g>
   </g>
  </g>
  <g id="axes_2">
   <g id="patch_5">
    <path d="M 447.323437 284.715 
L 811.733437 284.715 
L 811.733437 23.925 
L 447.323437 23.925 
z
" style="fill: #ffffff"/>
   </g>
   <g id="line2d_54">
    <path d="M 508.726522 284.715 
L 508.726522 23.925 
" clip-path="url(#p62be0f1673)" style="fill: none; stroke-dasharray: 0.7,1.155; stroke-dashoffset: 0; stroke: #b0b7bf; stroke-width: 0.7"/>
   </g>
   <g id="line2d_55">
    <path d="M 570.129607 284.715 
L 570.129607 23.925 
" clip-path="url(#p62be0f1673)" style="fill: none; stroke-dasharray: 0.7,1.155; stroke-dashoffset: 0; stroke: #b0b7bf; stroke-width: 0.7"/>
   </g>
   <g id="line2d_56">
    <path d="M 631.532692 284.715 
L 631.532692 23.925 
" clip-path="url(#p62be0f1673)" style="fill: none; stroke-dasharray: 0.7,1.155; stroke-dashoffset: 0; stroke: #b0b7bf; stroke-width: 0.7"/>
   </g>
   <g id="line2d_57">
    <path d="M 692.935777 284.715 
L 692.935777 23.925 
" clip-path="url(#p62be0f1673)" style="fill: none; stroke-dasharray: 0.7,1.155; stroke-dashoffset: 0; stroke: #b0b7bf; stroke-width: 0.7"/>
   </g>
   <g id="line2d_58">
    <path d="M 754.338862 284.715 
L 754.338862 23.925 
" clip-path="url(#p62be0f1673)" style="fill: none; stroke-dasharray: 0.7,1.155; stroke-dashoffset: 0; stroke: #b0b7bf; stroke-width: 0.7"/>
   </g>
   <g id="line2d_59">
    <path d="M 447.323437 269.579517 
L 811.733437 269.579517 
" clip-path="url(#p62be0f1673)" style="fill: none; stroke: #acb4bf; stroke-width: 0.7; stroke-linecap: square"/>
   </g>
   <g id="matplotlib.axis_3">
    <g id="xtick_10">
     <g id="line2d_60">
      <path d="M 447.323437 284.715 
L 447.323437 23.925 
" clip-path="url(#p62be0f1673)" style="fill: none; stroke: #b0b0b0; stroke-opacity: 0.22; stroke-width: 0.6; stroke-linecap: square"/>
     </g>
     <g id="line2d_61">
      <g>
       <use xlink:href="#ma5935367ae" x="447.323437" y="284.715" style="stroke: #000000; stroke-width: 0.8"/>
      </g>
     </g>
     <g id="text_27">
      <text style="font-size: 9px; font-family: 'Helvetica Neue', 'Arial', 'Hiragino Sans GB', 'PingFang SC', 'Arial Unicode MS', 'DejaVu Sans', sans-serif; text-anchor: middle" x="447.323437" y="300.283" transform="rotate(-0 447.323437 300.283)">0</text>
     </g>
    </g>
    <g id="xtick_11">
     <g id="line2d_62">
      <path d="M 492.874687 284.715 
L 492.874687 23.925 
" clip-path="url(#p62be0f1673)" style="fill: none; stroke: #b0b0b0; stroke-opacity: 0.22; stroke-width: 0.6; stroke-linecap: square"/>
     </g>
     <g id="line2d_63">
      <g>
       <use xlink:href="#ma5935367ae" x="492.874687" y="284.715" style="stroke: #000000; stroke-width: 0.8"/>
      </g>
     </g>
     <g id="text_28">
      <text style="font-size: 9px; font-family: 'Helvetica Neue', 'Arial', 'Hiragino Sans GB', 'PingFang SC', 'Arial Unicode MS', 'DejaVu Sans', sans-serif; text-anchor: middle" x="492.874687" y="300.283" transform="rotate(-0 492.874687 300.283)">250</text>
     </g>
    </g>
    <g id="xtick_12">
     <g id="line2d_64">
      <path d="M 538.425937 284.715 
L 538.425937 23.925 
" clip-path="url(#p62be0f1673)" style="fill: none; stroke: #b0b0b0; stroke-opacity: 0.22; stroke-width: 0.6; stroke-linecap: square"/>
     </g>
     <g id="line2d_65">
      <g>
       <use xlink:href="#ma5935367ae" x="538.425937" y="284.715" style="stroke: #000000; stroke-width: 0.8"/>
      </g>
     </g>
     <g id="text_29">
      <text style="font-size: 9px; font-family: 'Helvetica Neue', 'Arial', 'Hiragino Sans GB', 'PingFang SC', 'Arial Unicode MS', 'DejaVu Sans', sans-serif; text-anchor: middle" x="538.425937" y="300.283" transform="rotate(-0 538.425937 300.283)">500</text>
     </g>
    </g>
    <g id="xtick_13">
     <g id="line2d_66">
      <path d="M 583.977187 284.715 
L 583.977187 23.925 
" clip-path="url(#p62be0f1673)" style="fill: none; stroke: #b0b0b0; stroke-opacity: 0.22; stroke-width: 0.6; stroke-linecap: square"/>
     </g>
     <g id="line2d_67">
      <g>
       <use xlink:href="#ma5935367ae" x="583.977187" y="284.715" style="stroke: #000000; stroke-width: 0.8"/>
      </g>
     </g>
     <g id="text_30">
      <text style="font-size: 9px; font-family: 'Helvetica Neue', 'Arial', 'Hiragino Sans GB', 'PingFang SC', 'Arial Unicode MS', 'DejaVu Sans', sans-serif; text-anchor: middle" x="583.977187" y="300.283" transform="rotate(-0 583.977187 300.283)">750</text>
     </g>
    </g>
    <g id="xtick_14">
     <g id="line2d_68">
      <path d="M 629.528437 284.715 
L 629.528437 23.925 
" clip-path="url(#p62be0f1673)" style="fill: none; stroke: #b0b0b0; stroke-opacity: 0.22; stroke-width: 0.6; stroke-linecap: square"/>
     </g>
     <g id="line2d_69">
      <g>
       <use xlink:href="#ma5935367ae" x="629.528437" y="284.715" style="stroke: #000000; stroke-width: 0.8"/>
      </g>
     </g>
     <g id="text_31">
      <text style="font-size: 9px; font-family: 'Helvetica Neue', 'Arial', 'Hiragino Sans GB', 'PingFang SC', 'Arial Unicode MS', 'DejaVu Sans', sans-serif; text-anchor: middle" x="629.528437" y="300.283" transform="rotate(-0 629.528437 300.283)">1000</text>
     </g>
    </g>
    <g id="xtick_15">
     <g id="line2d_70">
      <path d="M 675.079687 284.715 
L 675.079687 23.925 
" clip-path="url(#p62be0f1673)" style="fill: none; stroke: #b0b0b0; stroke-opacity: 0.22; stroke-width: 0.6; stroke-linecap: square"/>
     </g>
     <g id="line2d_71">
      <g>
       <use xlink:href="#ma5935367ae" x="675.079687" y="284.715" style="stroke: #000000; stroke-width: 0.8"/>
      </g>
     </g>
     <g id="text_32">
      <text style="font-size: 9px; font-family: 'Helvetica Neue', 'Arial', 'Hiragino Sans GB', 'PingFang SC', 'Arial Unicode MS', 'DejaVu Sans', sans-serif; text-anchor: middle" x="675.079687" y="300.283" transform="rotate(-0 675.079687 300.283)">1250</text>
     </g>
    </g>
    <g id="xtick_16">
     <g id="line2d_72">
      <path d="M 720.630937 284.715 
L 720.630937 23.925 
" clip-path="url(#p62be0f1673)" style="fill: none; stroke: #b0b0b0; stroke-opacity: 0.22; stroke-width: 0.6; stroke-linecap: square"/>
     </g>
     <g id="line2d_73">
      <g>
       <use xlink:href="#ma5935367ae" x="720.630937" y="284.715" style="stroke: #000000; stroke-width: 0.8"/>
      </g>
     </g>
     <g id="text_33">
      <text style="font-size: 9px; font-family: 'Helvetica Neue', 'Arial', 'Hiragino Sans GB', 'PingFang SC', 'Arial Unicode MS', 'DejaVu Sans', sans-serif; text-anchor: middle" x="720.630937" y="300.283" transform="rotate(-0 720.630937 300.283)">1500</text>
     </g>
    </g>
    <g id="xtick_17">
     <g id="line2d_74">
      <path d="M 766.182187 284.715 
L 766.182187 23.925 
" clip-path="url(#p62be0f1673)" style="fill: none; stroke: #b0b0b0; stroke-opacity: 0.22; stroke-width: 0.6; stroke-linecap: square"/>
     </g>
     <g id="line2d_75">
      <g>
       <use xlink:href="#ma5935367ae" x="766.182187" y="284.715" style="stroke: #000000; stroke-width: 0.8"/>
      </g>
     </g>
     <g id="text_34">
      <text style="font-size: 9px; font-family: 'Helvetica Neue', 'Arial', 'Hiragino Sans GB', 'PingFang SC', 'Arial Unicode MS', 'DejaVu Sans', sans-serif; text-anchor: middle" x="766.182187" y="300.283" transform="rotate(-0 766.182187 300.283)">1750</text>
     </g>
    </g>
    <g id="xtick_18">
     <g id="line2d_76">
      <path d="M 811.733437 284.715 
L 811.733437 23.925 
" clip-path="url(#p62be0f1673)" style="fill: none; stroke: #b0b0b0; stroke-opacity: 0.22; stroke-width: 0.6; stroke-linecap: square"/>
     </g>
     <g id="line2d_77">
      <g>
       <use xlink:href="#ma5935367ae" x="811.733437" y="284.715" style="stroke: #000000; stroke-width: 0.8"/>
      </g>
     </g>
     <g id="text_35">
      <text style="font-size: 9px; font-family: 'Helvetica Neue', 'Arial', 'Hiragino Sans GB', 'PingFang SC', 'Arial Unicode MS', 'DejaVu Sans', sans-serif; text-anchor: middle" x="811.733437" y="300.283" transform="rotate(-0 811.733437 300.283)">2000</text>
     </g>
    </g>
    <g id="text_36">
     <text style="font-size: 10px; font-family: 'Helvetica Neue', 'Arial', 'Hiragino Sans GB', 'PingFang SC', 'Arial Unicode MS', 'DejaVu Sans', sans-serif; text-anchor: middle" x="629.528437" y="315.72" transform="rotate(-0 629.528437 315.72)">optimizer step</text>
    </g>
   </g>
   <g id="matplotlib.axis_4">
    <g id="ytick_10">
     <g id="line2d_78">
      <path d="M 447.323437 269.579517 
L 811.733437 269.579517 
" clip-path="url(#p62be0f1673)" style="fill: none; stroke: #b0b0b0; stroke-opacity: 0.22; stroke-width: 0.6; stroke-linecap: square"/>
     </g>
     <g id="line2d_79">
      <g>
       <use xlink:href="#mcb7b0945da" x="447.323437" y="269.579517" style="stroke: #000000; stroke-width: 0.8"/>
      </g>
     </g>
     <g id="text_37">
      <text style="font-size: 9px; font-family: 'Helvetica Neue', 'Arial', 'Hiragino Sans GB', 'PingFang SC', 'Arial Unicode MS', 'DejaVu Sans', sans-serif; text-anchor: end" x="440.323437" y="273.863517" transform="rotate(-0 440.323437 273.863517)">0</text>
     </g>
    </g>
    <g id="ytick_11">
     <g id="line2d_80">
      <path d="M 447.323437 239.296582 
L 811.733437 239.296582 
" clip-path="url(#p62be0f1673)" style="fill: none; stroke: #b0b0b0; stroke-opacity: 0.22; stroke-width: 0.6; stroke-linecap: square"/>
     </g>
     <g id="line2d_81">
      <g>
       <use xlink:href="#mcb7b0945da" x="447.323437" y="239.296582" style="stroke: #000000; stroke-width: 0.8"/>
      </g>
     </g>
     <g id="text_38">
      <text style="font-size: 9px; font-family: 'Helvetica Neue', 'Arial', 'Hiragino Sans GB', 'PingFang SC', 'Arial Unicode MS', 'DejaVu Sans', sans-serif; text-anchor: end" x="440.323437" y="243.580582" transform="rotate(-0 440.323437 243.580582)">1</text>
     </g>
    </g>
    <g id="ytick_12">
     <g id="line2d_82">
      <path d="M 447.323437 209.013647 
L 811.733437 209.013647 
" clip-path="url(#p62be0f1673)" style="fill: none; stroke: #b0b0b0; stroke-opacity: 0.22; stroke-width: 0.6; stroke-linecap: square"/>
     </g>
     <g id="line2d_83">
      <g>
       <use xlink:href="#mcb7b0945da" x="447.323437" y="209.013647" style="stroke: #000000; stroke-width: 0.8"/>
      </g>
     </g>
     <g id="text_39">
      <text style="font-size: 9px; font-family: 'Helvetica Neue', 'Arial', 'Hiragino Sans GB', 'PingFang SC', 'Arial Unicode MS', 'DejaVu Sans', sans-serif; text-anchor: end" x="440.323437" y="213.297647" transform="rotate(-0 440.323437 213.297647)">2</text>
     </g>
    </g>
    <g id="ytick_13">
     <g id="line2d_84">
      <path d="M 447.323437 178.730712 
L 811.733437 178.730712 
" clip-path="url(#p62be0f1673)" style="fill: none; stroke: #b0b0b0; stroke-opacity: 0.22; stroke-width: 0.6; stroke-linecap: square"/>
     </g>
     <g id="line2d_85">
      <g>
       <use xlink:href="#mcb7b0945da" x="447.323437" y="178.730712" style="stroke: #000000; stroke-width: 0.8"/>
      </g>
     </g>
     <g id="text_40">
      <text style="font-size: 9px; font-family: 'Helvetica Neue', 'Arial', 'Hiragino Sans GB', 'PingFang SC', 'Arial Unicode MS', 'DejaVu Sans', sans-serif; text-anchor: end" x="440.323437" y="183.014712" transform="rotate(-0 440.323437 183.014712)">3</text>
     </g>
    </g>
    <g id="ytick_14">
     <g id="line2d_86">
      <path d="M 447.323437 148.447777 
L 811.733437 148.447777 
" clip-path="url(#p62be0f1673)" style="fill: none; stroke: #b0b0b0; stroke-opacity: 0.22; stroke-width: 0.6; stroke-linecap: square"/>
     </g>
     <g id="line2d_87">
      <g>
       <use xlink:href="#mcb7b0945da" x="447.323437" y="148.447777" style="stroke: #000000; stroke-width: 0.8"/>
      </g>
     </g>
     <g id="text_41">
      <text style="font-size: 9px; font-family: 'Helvetica Neue', 'Arial', 'Hiragino Sans GB', 'PingFang SC', 'Arial Unicode MS', 'DejaVu Sans', sans-serif; text-anchor: end" x="440.323437" y="152.731777" transform="rotate(-0 440.323437 152.731777)">4</text>
     </g>
    </g>
    <g id="ytick_15">
     <g id="line2d_88">
      <path d="M 447.323437 118.164842 
L 811.733437 118.164842 
" clip-path="url(#p62be0f1673)" style="fill: none; stroke: #b0b0b0; stroke-opacity: 0.22; stroke-width: 0.6; stroke-linecap: square"/>
     </g>
     <g id="line2d_89">
      <g>
       <use xlink:href="#mcb7b0945da" x="447.323437" y="118.164842" style="stroke: #000000; stroke-width: 0.8"/>
      </g>
     </g>
     <g id="text_42">
      <text style="font-size: 9px; font-family: 'Helvetica Neue', 'Arial', 'Hiragino Sans GB', 'PingFang SC', 'Arial Unicode MS', 'DejaVu Sans', sans-serif; text-anchor: end" x="440.323437" y="122.448842" transform="rotate(-0 440.323437 122.448842)">5</text>
     </g>
    </g>
    <g id="ytick_16">
     <g id="line2d_90">
      <path d="M 447.323437 87.881907 
L 811.733437 87.881907 
" clip-path="url(#p62be0f1673)" style="fill: none; stroke: #b0b0b0; stroke-opacity: 0.22; stroke-width: 0.6; stroke-linecap: square"/>
     </g>
     <g id="line2d_91">
      <g>
       <use xlink:href="#mcb7b0945da" x="447.323437" y="87.881907" style="stroke: #000000; stroke-width: 0.8"/>
      </g>
     </g>
     <g id="text_43">
      <text style="font-size: 9px; font-family: 'Helvetica Neue', 'Arial', 'Hiragino Sans GB', 'PingFang SC', 'Arial Unicode MS', 'DejaVu Sans', sans-serif; text-anchor: end" x="440.323437" y="92.165907" transform="rotate(-0 440.323437 92.165907)">6</text>
     </g>
    </g>
    <g id="ytick_17">
     <g id="line2d_92">
      <path d="M 447.323437 57.598972 
L 811.733437 57.598972 
" clip-path="url(#p62be0f1673)" style="fill: none; stroke: #b0b0b0; stroke-opacity: 0.22; stroke-width: 0.6; stroke-linecap: square"/>
     </g>
     <g id="line2d_93">
      <g>
       <use xlink:href="#mcb7b0945da" x="447.323437" y="57.598972" style="stroke: #000000; stroke-width: 0.8"/>
      </g>
     </g>
     <g id="text_44">
      <text style="font-size: 9px; font-family: 'Helvetica Neue', 'Arial', 'Hiragino Sans GB', 'PingFang SC', 'Arial Unicode MS', 'DejaVu Sans', sans-serif; text-anchor: end" x="440.323437" y="61.882972" transform="rotate(-0 440.323437 61.882972)">7</text>
     </g>
    </g>
    <g id="ytick_18">
     <g id="line2d_94">
      <path d="M 447.323437 27.316037 
L 811.733437 27.316037 
" clip-path="url(#p62be0f1673)" style="fill: none; stroke: #b0b0b0; stroke-opacity: 0.22; stroke-width: 0.6; stroke-linecap: square"/>
     </g>
     <g id="line2d_95">
      <g>
       <use xlink:href="#mcb7b0945da" x="447.323437" y="27.316037" style="stroke: #000000; stroke-width: 0.8"/>
      </g>
     </g>
     <g id="text_45">
      <text style="font-size: 9px; font-family: 'Helvetica Neue', 'Arial', 'Hiragino Sans GB', 'PingFang SC', 'Arial Unicode MS', 'DejaVu Sans', sans-serif; text-anchor: end" x="440.323437" y="31.600037" transform="rotate(-0 440.323437 31.600037)">8</text>
     </g>
    </g>
    <g id="text_46">
     <text style="font-size: 10px; font-family: 'Helvetica Neue', 'Arial', 'Hiragino Sans GB', 'PingFang SC', 'Arial Unicode MS', 'DejaVu Sans', sans-serif; text-anchor: middle" x="429.19" y="154.32" transform="rotate(-90 429.19 154.32)">gap = val − train (nats)</text>
    </g>
   </g>
   <g id="patch_6">
    <path d="M 447.323437 284.715 
L 447.323437 23.925 
" style="fill: none; stroke: #000000; stroke-width: 0.8; stroke-linejoin: miter; stroke-linecap: square"/>
   </g>
   <g id="patch_7">
    <path d="M 447.323437 284.715 
L 811.733437 284.715 
" style="fill: none; stroke: #000000; stroke-width: 0.8; stroke-linejoin: miter; stroke-linecap: square"/>
   </g>
   <g id="line2d_96">
    <path d="M 449.145487 271.232749 
L 450.967537 272.860909 
L 452.789587 272.068836 
L 454.611637 271.560606 
L 456.433687 270.439487 
L 458.255737 270.632108 
L 460.077787 271.126391 
L 461.899837 271.353102 
L 463.721887 271.1994 
L 465.543937 270.527168 
L 467.365987 270.129942 
L 469.188037 269.913803 
L 471.010087 270.61905 
L 472.832137 270.653796 
L 474.654187 270.360002 
L 476.476237 270.261994 
L 478.298287 270.280677 
L 480.120337 270.735484 
L 481.942387 269.687079 
L 483.764437 269.649892 
L 485.586487 269.219997 
L 487.408537 270.217049 
L 489.230587 269.672752 
L 491.052637 270.165047 
L 492.874687 269.792224 
L 496.518787 269.813136 
L 498.340837 270.192028 
L 500.162887 270.427436 
L 501.984937 270.43568 
L 503.806987 270.328504 
L 505.629037 270.845665 
L 507.451087 271.135105 
L 509.273137 270.175622 
L 511.095187 267.812657 
L 512.917237 262.83952 
L 514.739287 257.43785 
L 516.561337 251.620369 
L 518.383387 247.228278 
L 520.205437 244.037075 
L 522.027487 241.836855 
L 523.849537 239.262345 
L 525.671587 237.092811 
L 527.493637 235.286825 
L 529.315687 235.18827 
L 532.959787 234.65201 
L 534.781837 233.804498 
L 536.603887 233.668806 
L 538.425937 233.728944 
L 540.247987 234.356384 
L 542.070037 233.858732 
L 543.892087 233.789099 
L 545.714137 233.428007 
L 547.536187 233.885435 
L 549.358237 233.518793 
L 553.002337 233.640273 
L 554.824387 234.130111 
L 558.468487 234.120495 
L 560.290537 233.798922 
L 563.934637 232.685811 
L 565.756687 232.73727 
L 567.578737 232.410727 
L 569.400787 232.611983 
L 571.222837 231.747264 
L 573.044887 228.900493 
L 574.866937 222.798686 
L 576.688987 214.942912 
L 578.511037 208.201014 
L 580.333087 203.677563 
L 582.155137 200.421588 
L 585.799237 197.061483 
L 587.621287 195.710856 
L 589.443337 194.713848 
L 591.265387 194.397244 
L 593.087437 194.430748 
L 594.909487 193.86523 
L 596.731537 193.812651 
L 598.553587 193.983181 
L 600.375637 194.675864 
L 602.197687 194.157303 
L 604.019737 193.390727 
L 605.841787 192.202549 
L 607.663837 191.612764 
L 611.307937 191.525378 
L 613.129987 190.808544 
L 614.952037 190.36594 
L 616.774087 190.078903 
L 618.596137 190.093042 
L 620.418187 189.719588 
L 624.062287 187.922259 
L 625.884337 186.999584 
L 629.528437 187.610339 
L 631.350487 187.754869 
L 633.172537 186.56772 
L 634.994587 183.759896 
L 636.816637 179.58561 
L 638.638687 174.257232 
L 640.460737 171.589775 
L 642.282787 168.400198 
L 644.104837 167.491808 
L 645.926887 164.009712 
L 647.748937 163.527088 
L 649.570987 161.353026 
L 651.393037 161.813566 
L 653.215087 161.180513 
L 655.037137 161.973943 
L 656.859187 161.155211 
L 658.681237 160.712289 
L 660.503287 160.132062 
L 662.325337 160.184734 
L 664.147387 159.940917 
L 665.969437 159.280912 
L 667.791487 158.764116 
L 669.613537 157.894887 
L 671.435587 157.927598 
L 673.257637 156.777383 
L 675.079687 157.444698 
L 676.901737 156.100368 
L 678.723787 156.115678 
L 680.545837 155.538204 
L 682.367887 155.862068 
L 684.189937 155.159788 
L 686.011987 153.293976 
L 687.834037 152.418351 
L 689.656087 152.342838 
L 691.478137 152.737871 
L 695.122237 151.144226 
L 696.944287 148.376931 
L 698.766337 146.331735 
L 700.588387 142.817693 
L 702.410437 141.367126 
L 704.232487 139.184465 
L 706.054537 138.713313 
L 707.876587 137.477431 
L 709.698637 136.403436 
L 711.520687 135.951882 
L 713.342737 136.064589 
L 715.164787 136.352346 
L 716.986837 135.544725 
L 720.630937 135.227395 
L 722.452987 133.497717 
L 724.275037 132.275032 
L 726.097087 130.780401 
L 727.919137 131.279886 
L 731.563237 131.021205 
L 733.385287 131.003283 
L 735.207337 131.425978 
L 737.029387 131.585028 
L 738.851437 131.098944 
L 740.673487 129.354495 
L 744.317587 127.83548 
L 746.139637 126.769138 
L 747.961687 125.248399 
L 749.783737 124.116762 
L 751.605787 124.235916 
L 753.427837 124.491918 
L 755.249887 124.223487 
L 757.071937 123.26451 
L 758.893987 120.190622 
L 760.716037 118.372313 
L 762.538087 115.446944 
L 764.360137 114.532062 
L 766.182187 113.22014 
L 768.004237 112.318076 
L 769.826287 111.914725 
L 771.648337 111.106691 
L 773.470387 112.41078 
L 775.292437 112.890201 
L 777.114487 113.086248 
L 780.758587 110.636828 
L 782.580637 110.39999 
L 784.402687 110.333921 
L 786.224737 110.616377 
L 788.046787 109.471236 
L 789.868837 108.73756 
L 791.690887 107.157212 
L 793.512937 106.109516 
L 795.334987 104.654358 
L 797.157037 104.42592 
L 800.801137 103.654104 
L 802.623187 102.675682 
L 804.445237 102.053179 
L 806.267287 100.640508 
L 808.089337 99.617009 
L 809.911387 98.942793 
L 811.733437 98.64581 
L 811.733437 98.64581 
" clip-path="url(#p62be0f1673)" style="fill: none; stroke: #2d6f9f; stroke-width: 1.4; stroke-linecap: square"/>
   </g>
   <g id="line2d_97">
    <path d="M 449.145487 271.37559 
L 454.611637 270.473256 
L 456.433687 271.586616 
L 458.255737 272.206937 
L 460.077787 272.524529 
L 461.899837 271.77357 
L 467.365987 270.562142 
L 469.188037 270.340214 
L 471.010087 270.610284 
L 472.832137 270.624718 
L 474.654187 270.295897 
L 478.298287 270.075064 
L 480.120337 270.478781 
L 481.942387 269.748044 
L 483.764437 270.040249 
L 485.586487 269.627048 
L 487.408537 270.246083 
L 489.230587 269.71386 
L 491.052637 270.027412 
L 492.874687 269.828142 
L 494.696737 269.81024 
L 496.518787 269.974415 
L 498.340837 270.484775 
L 500.162887 270.631714 
L 501.984937 270.660469 
L 503.806987 270.381598 
L 507.451087 270.969039 
L 509.273137 270.301289 
L 511.095187 268.536663 
L 512.917237 264.817506 
L 514.739287 262.198801 
L 516.561337 257.748697 
L 518.383387 252.619441 
L 520.205437 247.852777 
L 522.027487 246.122695 
L 523.849537 245.807275 
L 527.493637 239.942664 
L 529.315687 238.194188 
L 531.137737 238.910897 
L 534.781837 238.832067 
L 536.603887 238.04949 
L 538.425937 237.912789 
L 540.247987 238.293211 
L 542.070037 237.935761 
L 543.892087 238.482645 
L 545.714137 237.986688 
L 547.536187 239.451046 
L 549.358237 239.45298 
L 551.180287 239.890687 
L 553.002337 239.522689 
L 554.824387 239.596404 
L 556.646437 238.513682 
L 558.468487 238.173201 
L 560.290537 237.966249 
L 562.112587 237.944353 
L 563.934637 237.519673 
L 567.578737 237.742793 
L 569.400787 238.084728 
L 571.222837 233.783026 
L 573.044887 227.156127 
L 574.866937 216.47625 
L 578.511037 203.182547 
L 580.333087 199.437915 
L 582.155137 197.561723 
L 583.977187 197.790424 
L 587.621287 196.91826 
L 589.443337 196.545412 
L 591.265387 195.512649 
L 593.087437 192.469911 
L 594.909487 191.473094 
L 598.553587 193.343663 
L 602.197687 193.693964 
L 605.841787 193.121304 
L 607.663837 192.661877 
L 609.485887 192.35302 
L 611.307937 192.306103 
L 613.129987 192.834546 
L 616.774087 193.171673 
L 618.596137 193.568347 
L 620.418187 194.887876 
L 622.240237 194.423748 
L 624.062287 192.878156 
L 625.884337 191.16618 
L 627.706387 190.943129 
L 629.528437 191.359846 
L 631.350487 191.539267 
L 633.172537 188.419018 
L 634.994587 182.053714 
L 636.816637 175.036386 
L 638.638687 171.226294 
L 640.460737 168.623709 
L 642.282787 167.616586 
L 644.104837 165.140737 
L 645.926887 164.102009 
L 647.748937 162.655318 
L 649.570987 163.511483 
L 651.393037 164.682745 
L 653.215087 168.365241 
L 655.037137 168.36387 
L 656.859187 166.477122 
L 658.681237 161.819393 
L 660.503287 161.010271 
L 662.325337 161.529855 
L 664.147387 163.972143 
L 667.791487 163.072025 
L 669.613537 160.11762 
L 671.435587 160.051985 
L 673.257637 160.497692 
L 675.079687 160.688225 
L 676.901737 160.391737 
L 678.723787 160.322558 
L 680.545837 160.732914 
L 682.367887 160.874789 
L 684.189937 160.847527 
L 686.011987 160.377935 
L 687.834037 159.10626 
L 689.656087 158.550352 
L 691.478137 158.236961 
L 693.300187 157.389884 
L 696.944287 150.213119 
L 698.766337 147.713798 
L 700.588387 145.72133 
L 702.410437 142.290867 
L 704.232487 140.77689 
L 706.054537 139.500964 
L 707.876587 139.901148 
L 709.698637 139.180362 
L 711.520687 138.895808 
L 713.342737 140.534874 
L 715.164787 141.10813 
L 716.986837 140.302477 
L 718.808887 140.335532 
L 720.630937 138.612831 
L 722.452987 139.240001 
L 724.275037 138.363533 
L 726.097087 138.876779 
L 727.919137 139.913007 
L 729.741187 138.426224 
L 731.563237 139.357214 
L 733.385287 138.159728 
L 735.207337 138.883683 
L 737.029387 138.143509 
L 738.851437 139.234613 
L 740.673487 138.530421 
L 742.495537 136.252416 
L 744.317587 135.473299 
L 746.139637 134.359768 
L 747.961687 134.93393 
L 749.783737 133.523245 
L 751.605787 132.562778 
L 753.427837 132.311007 
L 755.249887 131.10303 
L 757.071937 130.250945 
L 758.893987 126.139425 
L 760.716037 124.159235 
L 762.538087 120.706601 
L 764.360137 119.888734 
L 766.182187 115.28455 
L 768.004237 115.779388 
L 769.826287 115.553979 
L 771.648337 117.785684 
L 773.470387 116.295907 
L 775.292437 118.147679 
L 777.114487 122.806942 
L 778.936537 122.984959 
L 780.758587 122.465873 
L 782.580637 117.115912 
L 784.402687 118.844563 
L 786.224737 116.828726 
L 788.046787 117.387533 
L 789.868837 116.233984 
L 791.690887 116.882775 
L 793.512937 115.662049 
L 795.334987 114.582247 
L 798.979087 113.538584 
L 800.801137 113.823448 
L 802.623187 111.3739 
L 804.445237 110.322354 
L 806.267287 110.065476 
L 809.911387 110.289307 
L 811.733437 109.443657 
L 811.733437 109.443657 
" clip-path="url(#p62be0f1673)" style="fill: none; stroke: #c4493d; stroke-width: 1.4; stroke-linecap: square"/>
   </g>
   <g id="line2d_98">
    <path d="M 449.145487 271.279856 
L 450.967537 270.805636 
L 452.789587 270.475412 
L 454.611637 270.024262 
L 456.433687 269.711709 
L 460.077787 270.273242 
L 461.899837 270.719897 
L 463.721887 270.448444 
L 465.543937 269.676262 
L 467.365987 269.472011 
L 469.188037 269.558166 
L 471.010087 270.377875 
L 472.832137 270.611968 
L 476.476237 270.316891 
L 478.298287 270.215746 
L 480.120337 270.556676 
L 481.942387 269.976791 
L 483.764437 270.020369 
L 485.586487 269.628569 
L 487.408537 270.196217 
L 489.230587 269.787832 
L 491.052637 270.058725 
L 494.696737 269.740214 
L 496.518787 269.823959 
L 498.340837 270.367275 
L 500.162887 270.753128 
L 501.984937 270.857965 
L 503.806987 270.619942 
L 507.451087 271.012495 
L 511.095187 270.588049 
L 512.917237 269.698771 
L 516.561337 269.352638 
L 520.205437 269.97447 
L 522.027487 270.03821 
L 525.671587 269.386807 
L 529.315687 267.405458 
L 531.137737 261.744491 
L 532.959787 253.256352 
L 534.781837 243.349058 
L 536.603887 237.404496 
L 538.425937 234.256971 
L 542.070037 232.919959 
L 543.892087 233.500008 
L 545.714137 233.695233 
L 547.536187 234.509245 
L 549.358237 234.220034 
L 551.180287 234.292523 
L 553.002337 233.826633 
L 554.824387 234.416939 
L 556.646437 233.862422 
L 558.468487 233.909699 
L 560.290537 232.691776 
L 562.112587 231.867857 
L 563.934637 231.334058 
L 565.756687 231.687863 
L 569.400787 231.997251 
L 571.222837 231.730939 
L 573.044887 230.720454 
L 574.866937 230.20776 
L 576.688987 229.39539 
L 578.511037 229.758505 
L 580.333087 228.414005 
L 582.155137 227.416804 
L 583.977187 226.758338 
L 585.799237 225.347073 
L 587.621287 223.613943 
L 589.443337 220.663252 
L 591.265387 216.50175 
L 593.087437 205.651951 
L 594.909487 190.866526 
L 596.731537 178.770271 
L 598.553587 172.789755 
L 602.197687 169.454174 
L 604.019737 168.556665 
L 607.663837 168.576673 
L 609.485887 169.003754 
L 613.129987 168.994143 
L 618.596137 168.288367 
L 622.240237 168.257181 
L 624.062287 166.987671 
L 625.884337 166.110388 
L 627.706387 165.61352 
L 629.528437 166.077902 
L 631.350487 164.986315 
L 633.172537 163.744974 
L 634.994587 161.654418 
L 636.816637 162.182791 
L 638.638687 160.344865 
L 640.460737 160.369204 
L 642.282787 158.257356 
L 644.104837 157.704435 
L 645.926887 155.915556 
L 651.393037 151.081335 
L 653.215087 147.243995 
L 656.859187 131.85321 
L 658.681237 123.195464 
L 660.503287 116.959801 
L 662.325337 112.032782 
L 664.147387 111.020543 
L 665.969437 111.664184 
L 667.791487 112.914215 
L 669.613537 113.056716 
L 671.435587 113.350842 
L 673.257637 111.637808 
L 675.079687 110.198888 
L 678.723787 109.596538 
L 680.545837 110.419945 
L 682.367887 109.794806 
L 684.189937 109.493269 
L 686.011987 108.43445 
L 687.834037 106.576329 
L 689.656087 105.315348 
L 691.478137 104.930049 
L 693.300187 105.322462 
L 695.122237 105.16652 
L 696.944287 103.505867 
L 698.766337 102.762783 
L 700.588387 101.635253 
L 702.410437 101.290322 
L 704.232487 99.414346 
L 706.054537 98.813178 
L 707.876587 97.291274 
L 709.698637 96.337597 
L 711.520687 94.073544 
L 715.164787 90.952411 
L 716.986837 87.302286 
L 720.630937 74.990814 
L 722.452987 70.383963 
L 724.275037 69.506021 
L 726.097087 69.135597 
L 727.919137 69.44503 
L 729.741187 69.970481 
L 731.563237 70.352337 
L 733.385287 70.490592 
L 737.029387 68.148222 
L 738.851437 68.325466 
L 740.673487 67.964258 
L 742.495537 67.762584 
L 744.317587 67.145913 
L 747.961687 65.180378 
L 749.783737 63.670516 
L 751.605787 63.656844 
L 753.427837 63.878943 
L 755.249887 64.78807 
L 757.071937 64.437051 
L 758.893987 62.080344 
L 760.716037 60.859923 
L 762.538087 60.60083 
L 764.360137 61.813426 
L 766.182187 60.717229 
L 768.004237 59.385697 
L 769.826287 58.884341 
L 771.648337 58.973452 
L 773.470387 58.506937 
L 775.292437 56.487647 
L 777.114487 54.675913 
L 778.936537 53.593947 
L 782.580637 44.765262 
L 784.402687 39.351161 
L 786.224737 39.211359 
L 788.046787 38.476359 
L 789.868837 39.159835 
L 791.690887 38.520604 
L 793.512937 39.165342 
L 797.157037 39.411365 
L 800.801137 37.951636 
L 802.623187 36.946074 
L 804.445237 35.779091 
L 806.267287 36.237518 
L 808.089337 36.567592 
L 809.911387 37.330662 
L 811.733437 37.026397 
L 811.733437 37.026397 
" clip-path="url(#p62be0f1673)" style="fill: none; stroke: #c58a0b; stroke-width: 1.4; stroke-linecap: square"/>
   </g>
   <g id="line2d_99">
    <path d="M 449.145487 271.236048 
L 450.967537 270.688726 
L 452.789587 270.361704 
L 454.611637 269.845099 
L 458.255737 270.3868 
L 460.077787 270.243751 
L 461.899837 270.217095 
L 463.721887 269.824775 
L 465.543937 269.789285 
L 467.365987 269.507541 
L 469.188037 269.684163 
L 471.010087 270.251441 
L 472.832137 270.397219 
L 474.654187 270.218669 
L 476.476237 269.7861 
L 478.298287 269.760395 
L 480.120337 270.058166 
L 481.942387 269.714643 
L 483.764437 269.858148 
L 485.586487 269.548146 
L 487.408537 270.135895 
L 489.230587 269.734313 
L 491.052637 270.084886 
L 494.696737 270.003444 
L 500.162887 270.470036 
L 501.984937 270.291509 
L 505.629037 270.663747 
L 507.451087 270.876873 
L 509.273137 270.742032 
L 511.095187 270.721841 
L 512.917237 270.337773 
L 514.739287 269.308717 
L 518.383387 269.179953 
L 520.205437 270.280423 
L 522.027487 270.49164 
L 523.849537 270.575121 
L 525.671587 270.417442 
L 527.493637 269.947379 
L 529.315687 270.238115 
L 532.959787 270.400973 
L 534.781837 269.68028 
L 536.603887 269.507505 
L 538.425937 269.525022 
L 540.247987 270.105386 
L 542.070037 269.742693 
L 543.892087 269.745237 
L 545.714137 269.389641 
L 547.536187 269.816779 
L 551.180287 269.600672 
L 553.002337 269.2472 
L 554.824387 269.249724 
L 558.468487 269.817842 
L 563.934637 269.404346 
L 565.756687 269.72921 
L 567.578737 269.809285 
L 571.222837 271.371824 
L 573.044887 271.48767 
L 576.688987 270.600683 
L 582.155137 270.708523 
L 583.977187 271.302829 
L 585.799237 271.294579 
L 589.443337 270.215535 
L 591.265387 270.330553 
L 593.087437 270.160907 
L 594.909487 269.861625 
L 596.731537 269.370599 
L 598.553587 269.783705 
L 600.375637 269.960138 
L 602.197687 270.549658 
L 604.019737 269.918891 
L 605.841787 269.687102 
L 607.663837 269.273109 
L 609.485887 269.265087 
L 611.307937 269.871603 
L 613.129987 270.038716 
L 614.952037 270.582312 
L 616.774087 270.095132 
L 620.418187 269.726252 
L 622.240237 269.174924 
L 625.884337 268.597915 
L 627.706387 269.501688 
L 629.528437 269.442103 
L 631.350487 269.776927 
L 633.172537 269.829039 
L 634.994587 270.608375 
L 638.638687 269.495332 
L 640.460737 269.206484 
L 642.282787 269.924027 
L 644.104837 269.899603 
L 645.926887 269.479353 
L 647.748937 268.667001 
L 649.570987 268.356446 
L 651.393037 268.237531 
L 653.215087 268.469292 
L 655.037137 268.957248 
L 656.859187 268.335925 
L 658.681237 268.836463 
L 660.503287 268.543558 
L 662.325337 268.89403 
L 665.969437 268.826292 
L 667.791487 269.461484 
L 669.613537 269.046377 
L 671.435587 269.703919 
L 673.257637 269.411758 
L 675.079687 269.94773 
L 676.901737 269.453624 
L 678.723787 269.939048 
L 684.189937 269.474361 
L 686.011987 268.556504 
L 687.834037 268.153128 
L 689.656087 267.262455 
L 691.478137 267.73859 
L 695.122237 267.945615 
L 698.766337 267.336528 
L 700.588387 267.751986 
L 702.410437 267.919806 
L 704.232487 268.515645 
L 706.054537 267.958927 
L 707.876587 267.869329 
L 709.698637 267.204269 
L 711.520687 267.289936 
L 715.164787 267.854007 
L 716.986837 266.674816 
L 718.808887 266.445626 
L 720.630937 266.621122 
L 722.452987 267.556286 
L 724.275037 267.200846 
L 726.097087 266.585294 
L 729.741187 266.504245 
L 731.563237 266.939716 
L 733.385287 266.861077 
L 735.207337 267.853592 
L 738.851437 268.33926 
L 740.673487 267.187762 
L 742.495537 266.296734 
L 744.317587 265.827467 
L 747.961687 266.116347 
L 749.783737 266.484842 
L 751.605787 266.191146 
L 753.427837 266.273062 
L 755.249887 265.577819 
L 757.071937 266.012122 
L 758.893987 265.722685 
L 760.716037 266.798684 
L 762.538087 266.634425 
L 764.360137 267.434377 
L 766.182187 267.050501 
L 768.004237 267.523284 
L 769.826287 267.37082 
L 771.648337 267.632359 
L 773.470387 267.000633 
L 777.114487 266.232192 
L 778.936537 265.282546 
L 780.758587 264.70829 
L 782.580637 263.733109 
L 784.402687 264.142224 
L 788.046787 264.288345 
L 789.868837 265.007135 
L 791.690887 265.079202 
L 793.512937 265.654873 
L 795.334987 265.280382 
L 797.157037 264.116007 
L 798.979087 263.734291 
L 800.801137 264.357561 
L 802.623187 265.483598 
L 804.445237 265.326351 
L 809.911387 263.673452 
L 811.733437 262.70174 
L 811.733437 262.70174 
" clip-path="url(#p62be0f1673)" style="fill: none; stroke: #686d73; stroke-width: 1.4; stroke-linecap: square"/>
   </g>
   <g id="text_47">
    <text style="font-weight: 500; font-size: 11px; font-family: 'Helvetica Neue', 'Arial', 'Hiragino Sans GB', 'PingFang SC', 'Arial Unicode MS', 'DejaVu Sans', sans-serif; text-anchor: middle" x="629.528437" y="17.925" transform="rotate(-0 629.528437 17.925)">Validation minus training gap</text>
   </g>
  </g>
 </g>
 <defs>
  <clipPath id="p87b90af6ac">
   <rect x="34.853438" y="23.925" width="364.41" height="260.79"/>
  </clipPath>
  <clipPath id="p62be0f1673">
   <rect x="447.323437" y="23.925" width="364.41" height="260.79"/>
  </clipPath>
 </defs>
</svg>
